<svg id="Capa_1" enable-background="new 0 0 512 512" viewBox="0 0 512 512" xmlns="http://www.w3.org/2000/svg"><g><path d="m408.496 284.628c-4.267 0-7.726-3.459-7.726-7.726v-32.554c0-4.267 3.459-7.726 7.726-7.726s7.726 3.459 7.726 7.726v32.554c0 4.267-3.459 7.726-7.726 7.726z" fill="#9c9c9c"/><path d="m361.605 486.854c-.265-48.716-35.149-89.237-81.309-98.192l-85.289 22.288-72.847-22.288c-46.161 8.955-80.852 43.686-81.117 92.403z" fill="#f8f6f6"/><path d="m232.769 455.444-31.445-35.01-31.637 35.01 10.139 25.62h42.804z" fill="#fd6930"/><path d="m314.992 402.507c9.933 15.594 15.69 34.107 15.69 53.966v15.011c0 5.291-4.289 9.58-9.58 9.58h-280.059c-.131 2.099-.205 4.213-.205 6.345v15.011c0 5.291 4.289 9.58 9.58 9.58h301.62c5.291 0 9.58-4.289 9.58-9.58v-15.011c6.671-33.377-18.595-67.047-46.626-84.902z" fill="#e2e2e2"/><path d="m261.027 386.818h-119.597c-6.591 0-13.031.641-19.268 1.851l19.084 73.635c1.686 6.504 9.582 9.022 14.721 4.694l40.705-34.277c2.633-2.217 6.48-2.217 9.113 0l40.705 34.277c5.14 4.328 13.036 1.81 14.721-4.694l19.084-73.635c-6.238-1.21-12.678-1.851-19.268-1.851z" fill="#cecece"/><path d="m154.824 333.5v47.77c0 25.603 20.755 46.358 46.358 46.358h.091c25.603 0 46.358-20.755 46.358-46.358v-47.77z" fill="#d88a55"/><path d="m161.832 512h78.793l-17.995-30.936h-42.804z" fill="#fd5426"/><g fill="#d88a55"><circle cx="76.688" cy="205.782" r="30.148"/><circle cx="325.769" cy="205.782" r="30.148"/><path d="m313.852 124.689c-14.832-48.113-59.643-83.079-112.624-83.079-65.08 0-117.838 52.758-117.838 117.838v49.54c0 1.933.038 3.86.114 5.783 1.722 43.507 22.802 84.102 57.655 110.535 35.516 26.936 84.621 26.936 120.137 0 25.874-19.624 44.148-47.057 52.555-77.689v-122.928z"/></g><path d="m297.651 147.755-3.393 68.576c0 45.675-27.475 81.373-63.867 108.974-13.42 10.178-28.781 16.504-44.616 18.99 26.071 4.094 53.425-2.232 75.521-18.99 36.392-27.6 57.769-70.643 57.769-116.317v-46.309z" fill="#c6794e"/><path d="m318.93 234.592-.031-15.927-17.773 26.986c-6.367 9.511-17.54 14.636-28.902 13.259l-8.136-.986c-1.57-.19-2.838-1.42-3.006-2.993-1.319-12.321-11.749-21.916-24.42-21.916h-70.825c-12.671 0-23.101 9.595-24.421 21.916-.168 1.572-1.436 2.802-3.006 2.992l-8.137.986c-11.362 1.377-22.534-3.749-28.902-13.259l-18.067-26.986v16.156c0 65.066 52.747 117.813 117.813 117.813 65.156.001 117.94-52.885 117.813-118.041z" fill="#5a5a5a"/><g><path d="m318.899 218.665-17.773 26.986c-3.743 5.59-8.598 9.45-14.723 11.58-9.581 49.283-50.435 87.802-100.738 94.393 5.057.662 10.214 1.009 15.452 1.009 65.156 0 117.94-52.886 117.813-118.042z" fill="#444"/></g><path d="m345.823 54.144c.455-29.416-22.485-53.369-51.895-54.125-13.816-.355-26.48 4.548-36.137 12.851-6.358 5.467-15.711 5.19-22.106-.234-9.291-7.882-21.318-12.636-34.457-12.636s-25.167 4.754-34.459 12.636c-6.466 5.484-15.838 5.571-22.292.073-9.619-8.194-22.185-13.029-35.887-12.692-29.09.715-51.964 24.19-51.964 53.291 0 3.387.878 7.837 1.932 11.957 2.689 10.515 4.919 21.141 6.456 31.885l18.289 82.307c.01.068-.055.041 0 0 17.09-12.865 23.676-49.429 25.781-65.317.59-4.455 3.868-8.067 8.24-9.108 7.853-1.872 19.926-5.332 25.789-10.002 7.33-5.838 17.603-5.838 24.933 0 9.105 7.252 20.636 11.585 33.181 11.585s24.076-4.334 33.181-11.586c7.33-5.838 17.603-5.838 24.933 0 5.86 4.668 17.924 8.126 25.777 9.999 4.377 1.044 7.658 4.663 8.242 9.125 2.083 15.904-4.864 32.817 25.705 65.345l17.495-76.236c1.776-12.417 4.539-24.654 7.63-36.81 1.005-3.946 1.568-8.066 1.633-12.308z" fill="#5a5a5a"/><path d="m293.865.017c-5.836-.143-11.461.66-16.745 2.253 22.018 6.591 37.805 26.868 37.804 51.039 0 4.536-.569 8.939-1.638 13.143-3.091 12.156-5.855 24.393-7.63 36.81l-8.005 44.493c4.134 13.932 9.969 23.126 21.415 31.743l17.495-76.236c1.776-12.417 4.539-24.654 7.63-36.81 1.069-4.203 1.638-8.606 1.638-13.143.002-29.1-22.872-52.578-51.964-53.292z" fill="#444"/><path d="m371.326 472.283-14.666-11.277c-9.181-7.06-13.009-19.082-9.6-30.151l32.086-104.18 33.818 10.415z" fill="#9c9c9c"/><path d="m157.064 206.894c-4.267 0-7.726-3.459-7.726-7.726v-7.744c0-4.267 3.459-7.726 7.726-7.726s7.726 3.459 7.726 7.726v7.744c0 4.267-3.459 7.726-7.726 7.726z" fill="#686868"/><path d="m245.393 206.894c-4.267 0-7.726-3.459-7.726-7.726v-7.744c0-4.267 3.459-7.726 7.726-7.726s7.726 3.459 7.726 7.726v7.744c0 4.267-3.459 7.726-7.726 7.726z" fill="#686868"/><path d="m140.957 176.099c-2.308 0-4.59-1.029-6.113-2.994-2.614-3.373-1.998-8.226 1.375-10.84.557-.432 13.851-10.516 31.802-5.78 4.126 1.088 6.589 5.315 5.501 9.441s-5.314 6.588-9.441 5.501c-10.494-2.768-18.321 2.994-18.397 3.053-1.408 1.09-3.074 1.619-4.727 1.619z" fill="#5a5a5a"/><path d="m261.499 176.099c-1.632 0-3.277-.515-4.674-1.578-.437-.321-8.121-5.819-18.45-3.094-4.124 1.088-8.353-1.375-9.441-5.501-1.089-4.126 1.374-8.353 5.501-9.441 17.955-4.735 31.245 5.349 31.802 5.78 3.373 2.614 3.989 7.467 1.375 10.84-1.522 1.964-3.805 2.994-6.113 2.994z" fill="#5a5a5a"/><path d="m201.135 217.226c-4.819 0-9.488-.919-13.877-2.729-3.945-1.627-5.823-6.144-4.196-10.089 1.628-3.945 6.145-5.824 10.089-4.196 2.511 1.036 5.197 1.561 7.984 1.561 2.838 0 5.569-.544 8.119-1.617 3.934-1.657 8.464.19 10.119 4.123 1.656 3.933-.19 8.463-4.123 10.119-4.458 1.877-9.207 2.828-14.115 2.828z" fill="#c6794e"/><path d="m201.228 292.873c-10.552 0-20.374-3.983-27.656-11.217-3.028-3.007-3.044-7.899-.037-10.927 3.007-3.029 7.899-3.044 10.927-.037 4.305 4.276 10.417 6.728 16.767 6.728 6.351 0 12.462-2.452 16.767-6.728 3.028-3.006 7.92-2.991 10.927.037s2.99 7.919-.037 10.927c-7.283 7.233-17.105 11.217-27.658 11.217z" fill="#c6794e"/><path d="m405.502 342.132c-4.077-1.254-8.402 1.032-9.658 5.11l-47.662 154.755c-1.256 4.078 1.032 8.402 5.11 9.658.758.233 1.523.344 2.277.344 3.302 0 6.359-2.134 7.382-5.454l47.662-154.755c1.255-4.077-1.033-8.402-5.111-9.658z" fill="#686868"/><path d="m445.665 472.283 14.666-11.277c9.181-7.06 13.009-19.082 9.6-30.151l-32.086-104.18-33.818 10.415z" fill="#9c9c9c"/><path d="m411.49 342.132c4.077-1.254 8.402 1.032 9.658 5.11l47.662 154.755c1.256 4.078-1.032 8.402-5.11 9.658-.758.233-1.523.344-2.277.344-3.302 0-6.359-2.134-7.382-5.454l-47.662-154.755c-1.256-4.077 1.033-8.402 5.111-9.658z" fill="#686868"/><circle cx="408.496" cy="315.048" fill="#fd6930" r="40.207"/><path d="m408.494 322.776c-11.012.021-9.304-17.488 1.515-15.298 8.952 1.551 7.558 15.512-1.515 15.298z" fill="#ffd1be"/></g><g/><g/><g/><g/><g/><g/><g/><g/><g/><g/><g/><g/><g/><g/><g/></svg>