<svg id="Capa_1" enable-background="new 0 0 512 512" viewBox="0 0 512 512" xmlns="http://www.w3.org/2000/svg"><g><path d="m289.466 46.14c-2.293-1.096-4.061-3.102-4.842-5.544-15.206-47.543-75.296-35.741-133.719-26.012-46.221 7.698-71.894-6.794-81.005-13.597-2.348-1.753-5.638-1.096-7.236 1.375-12.857 19.875-6.226 41.716-2.248 51.149 1.233 2.925.789 6.318-1.251 8.736-41.378 49.054-17.555 117.931-17.555 117.931h288.947c23.53-95.721-26.688-127.153-41.091-134.038z" fill="#c86d36"/><path d="m284.612 40.559c-11.558-36.06-48.963-37.945-91.866-32.506 28.828 3.491 51.844 15.332 60.694 42.1.973 2.943 3.039 5.387 5.793 6.748 14.65 7.236 59.974 37.057 42.74 123.277h28.583c23.531-95.721-26.687-127.154-41.091-134.038-2.304-1.102-4.066-3.127-4.853-5.581z" fill="#ac5e2e"/><path d="m315.611 407.243c-15.131-12.912-34.001-21.572-54.761-24.122l-76.962 40.425-72.572-40.421c-51.49 6.322-91.362 50.205-91.362 103.404v15.548c0 5.48 4.442 9.923 9.922 9.923h252.028l33.707-23.442z" fill="#5a5a5a"/><path d="m292.567 481.095h-272.473c-.092 1.8-.14 3.612-.14 5.435v15.548c0 5.48 4.442 9.923 9.922 9.923h252.028z" fill="#444"/><g fill="#ffe5c2"><path d="m248.02 382.339h-15.126c-3.095 0-5.605-2.509-5.605-5.605v-71.929h-82.414v71.929c0 3.095-2.509 5.605-5.605 5.605h-15.126c-4.344 0-8.624.27-12.828.787 4.515 10.569 10.008 20.551 15.947 29.79 27.433 42.679 90.206 42.679 117.639 0 5.939-9.239 11.432-19.222 15.947-29.79-4.205-.517-8.485-.787-12.829-.787z"/><circle cx="310.622" cy="202.789" r="30.148"/><path d="m251.604 138.129c-15.699-10.455-22.033-28.658-24.544-40.08-.237-1.078-1.188-1.838-2.292-1.838-.967 0-1.82.595-2.184 1.491-5.432 13.366-17.034 27.545-29.324 34.015-53.856 28.354-106.959-15.054-127.119 43.962v27.223c0 45.675 21.758 88.717 58.8 116.317 36.15 26.936 86.131 26.936 122.281 0 37.041-27.6 58.8-70.643 58.8-116.317v-31.237c-13.023-23.12-32.151-18.707-54.418-33.536z"/></g><path d="m274.563 148.941v53.962c0 45.675-21.759 88.717-58.8 116.317-13.659 10.178-29.294 16.504-45.411 18.99 26.536 4.094 54.38-2.232 76.871-18.99 37.042-27.6 58.8-70.643 58.8-116.317v-31.237c-8.275-14.691-19.017-18.267-31.46-22.725z" fill="#fed2a4"/><circle cx="61.541" cy="202.789" fill="#ffe5c2" r="30.148"/><path d="m281.904 512h39.855l-15.697-38.529h-46.625c-3.034 0-5.494 2.46-5.494 5.494v5.075c0 15.442 12.518 27.96 27.961 27.96z" fill="#cecece"/><path d="m235.123 209.356c-4.268 0-7.726-3.459-7.726-7.726v-7.876c0-4.267 3.459-7.726 7.726-7.726 4.268 0 7.726 3.459 7.726 7.726v7.876c.001 4.267-3.458 7.726-7.726 7.726z" fill="#5a5a5a"/><path d="m136.852 209.356c-4.268 0-7.726-3.459-7.726-7.726v-7.876c0-4.267 3.459-7.726 7.726-7.726s7.726 3.459 7.726 7.726v7.876c0 4.267-3.459 7.726-7.726 7.726z" fill="#5a5a5a"/><path d="m185.988 291.562c-10.697 0-20.654-4.038-28.035-11.37-3.028-3.007-3.044-7.899-.037-10.927 3.007-3.029 7.899-3.045 10.927-.037 4.402 4.373 10.652 6.881 17.146 6.881 6.493 0 12.742-2.508 17.146-6.881 3.027-3.006 7.92-2.991 10.927.038 3.007 3.028 2.99 7.92-.037 10.927-7.385 7.331-17.341 11.369-28.037 11.369z" fill="#fab282"/><path d="m186.082 257.95c-4.975 0-9.788-.964-14.305-2.867-3.933-1.656-5.778-6.187-4.122-10.119 1.656-3.933 6.185-5.779 10.12-4.122 2.608 1.099 5.403 1.655 8.307 1.655 2.851 0 5.6-.538 8.17-1.598 3.943-1.626 8.461.251 10.089 4.196s-.251 8.462-4.195 10.089c-4.449 1.835-9.181 2.766-14.064 2.766z" fill="#fab282"/><path d="m254.199 137.094c-30.216 0-55.23 22.627-59.032 51.824h-18.17c-3.802-29.197-28.815-51.824-59.031-51.824-32.836 0-59.55 26.714-59.55 59.55s26.714 59.55 59.55 59.55c30.216 0 55.229-22.627 59.031-51.824h18.17c3.802 29.197 28.816 51.824 59.032 51.824 32.836 0 59.55-26.714 59.55-59.55s-26.714-59.55-59.55-59.55zm-136.234 103.647c-24.316 0-44.098-19.782-44.098-44.098s19.782-44.098 44.098-44.098c24.315 0 44.097 19.782 44.097 44.098s-19.782 44.098-44.097 44.098zm136.234 0c-24.316 0-44.098-19.782-44.098-44.098s19.782-44.098 44.098-44.098 44.098 19.782 44.098 44.098-19.782 44.098-44.098 44.098z" fill="#5a5a5a"/><path d="m476.809 512h-155.51c-8.415 0-15.237-6.822-15.237-15.237v-122.963c0-8.415 6.822-15.237 15.237-15.237h155.51c8.415 0 15.237 6.822 15.237 15.237v122.963c.001 8.415-6.821 15.237-15.237 15.237z" fill="#fedf30"/><path d="m476.349 358.563h-15.212v106.832c0 8.669-7.028 15.697-15.697 15.697h-139.378v15.211c0 8.669 7.028 15.697 15.697 15.697h154.591c8.669 0 15.697-7.028 15.697-15.697v-122.043c0-8.669-7.028-15.697-15.698-15.697z" fill="#fed402"/><circle cx="399.054" cy="435.281" fill="#f8f6f6" r="22.652"/></g><g/><g/><g/><g/><g/><g/><g/><g/><g/><g/><g/><g/><g/><g/><g/></svg>