<svg id="Capa_1" enable-background="new 0 0 512 512" viewBox="0 0 512 512" xmlns="http://www.w3.org/2000/svg"><g><g fill="#d88a55"><path d="m264.691 386.818h-13.395v-57.835h-92.807v57.835h-13.395c-4.032 0-8.006.245-11.913.709 0 0-1.239 16.814-1.856 16.899v59.689h149.786v-61.607l-4.507-14.985c0-.001-7.882-.705-11.913-.705z"/><path d="m294.184 432.144 16.107 79.856h45.411c5.291 0 9.579-4.289 9.579-9.58v-15.011c0-39.139-22.354-73.056-54.991-89.683.001 0-15.498 34.712-16.106 34.418z"/><path d="m44.503 487.409v15.011c0 5.291 4.289 9.58 9.579 9.58h45.412l10.302-54.746-10.302-59.528c-32.636 16.627-54.991 50.544-54.991 89.683z"/></g><path d="m318.656 402.508c9.933 15.594 15.69 34.107 15.69 53.966v15.011c0 5.291-4.289 9.58-9.58 9.58h-14.476l-10.302 15.468 10.303 15.467h45.411c5.291 0 9.579-4.289 9.579-9.58v-15.011c.001-35.696-18.594-67.047-46.625-84.901z" fill="#c6794e"/><path d="m44.708 481.064c-.131 2.099-.205 4.213-.205 6.345v15.011c0 5.291 4.289 9.58 9.579 9.58h45.412l10.302-15.468-10.302-15.468z" fill="#c6794e"/><circle cx="79.39" cy="230.023" fill="#d88a55" r="30.381"/><path d="m276.604 387.523v63.853c0 3.246-2.631 5.878-5.878 5.878h-131.864c-3.253 0-5.888-2.643-5.878-5.896l.197-63.835c-12.003 1.417-23.36 4.941-33.687 10.203v83.338l103.85 10.332 106.946-10.332v-83.338c-10.326-5.261-21.683-8.786-33.686-10.203z" fill="#fee45a"/><path d="m99.494 481.092h210.797v30.908h-210.797z" fill="#fed402"/><circle cx="330.395" cy="230.023" fill="#d88a55" r="30.381"/><path d="m265.425 340.305c-35.791 27.144-85.275 27.144-121.066 0-36.673-27.814-58.215-71.189-58.215-117.216v-49.923c0-65.583 53.165-118.748 118.748-118.748 65.583 0 118.748 53.165 118.748 118.748v49.923c.001 46.027-21.541 89.402-58.215 117.216z" fill="#d88a55"/><path d="m204.893 54.418c-5.398 0-10.71.367-15.917 1.065 58.055 7.778 102.831 57.498 102.831 117.683v49.923c0 46.027-21.542 89.402-58.216 117.216-13.427 10.183-28.781 16.546-44.616 19.089 26.375 4.235 54.086-2.127 76.45-19.089 36.673-27.814 58.216-71.189 58.216-117.216v-49.923c0-65.583-53.166-118.748-118.748-118.748z" fill="#c6794e"/><path d="m291.233 28.516-65.968-24.812c-13.131-4.939-27.61-4.939-40.741 0l-65.969 24.812c-19.855 7.468-34.032 25.201-36.946 46.213l-6.222 44.866h259.016l-6.222-44.866c-2.915-21.012-17.093-38.745-36.948-46.213z" fill="#08a9f1"/><path d="m183.987 14.025 65.969 24.812c19.855 7.468 34.032 25.201 36.946 46.213l4.791 34.547h42.707l-6.222-44.866c-2.914-21.012-17.091-38.745-36.946-46.213l-65.969-24.813c-13.131-4.939-27.61-4.939-40.741 0l-17.829 6.706c5.87.313 11.704 1.511 17.294 3.614z" fill="#0290cf"/><path d="m204.893 102.897c-85.431 0-125.283 13.92-142.024 22.812-5.857 3.111-7.152 10.933-2.611 15.766l25.727 27.382h237.656l25.845-27.378c4.559-4.83 3.273-12.67-2.595-15.783-16.756-8.893-56.61-22.799-141.998-22.799z" fill="#fac600"/><path d="m346.891 125.695c-6.569-3.486-16.689-7.742-31.709-11.63l-10.116 10.716c-7.904 8.372-18.908 13.118-30.422 13.118h-216.544c.447 1.282 1.151 2.504 2.158 3.575l25.727 27.382h237.656l25.845-27.378c4.559-4.829 3.272-12.669-2.595-15.783z" fill="#e8b800"/><path d="m198.281 92.506c-1.648 0-3.309-.525-4.714-1.61-3.378-2.607-4.004-7.459-1.397-10.837l8.322-10.785-6.819-5.077c-1.718-1.279-2.827-3.214-3.065-5.342-.237-2.128.42-4.26 1.814-5.885l13.213-15.405c2.778-3.239 7.654-3.613 10.895-.835 3.239 2.778 3.613 7.656.835 10.895l-7.823 9.122 6.483 4.828c1.662 1.237 2.758 3.091 3.04 5.143.282 2.053-.272 4.133-1.537 5.774l-13.123 17.008c-1.524 1.971-3.812 3.006-6.124 3.006z" fill="#fac600"/><path d="m159.11 241.246c-4.267 0-7.726-3.459-7.726-7.726v-7.757c0-4.267 3.459-7.726 7.726-7.726s7.726 3.459 7.726 7.726v7.757c0 4.267-3.459 7.726-7.726 7.726z" fill="#686868"/><path d="m247.579 241.246c-4.267 0-7.726-3.459-7.726-7.726v-7.757c0-4.267 3.459-7.726 7.726-7.726s7.726 3.459 7.726 7.726v7.757c.001 4.267-3.459 7.726-7.726 7.726z" fill="#686868"/><path d="m142.95 210.44c-2.306 0-4.588-1.037-6.116-3.009-2.614-3.373-1.967-8.249 1.406-10.863.557-.433 13.866-10.53 31.842-5.787 4.126 1.089 6.589 5.315 5.5 9.442-1.088 4.126-5.316 6.589-9.442 5.5-10.437-2.753-18.174 2.867-18.498 3.107-1.401 1.086-3.053 1.61-4.692 1.61z" fill="#5a5a5a"/><path d="m263.711 210.402c-1.632 0-3.277-.516-4.674-1.578-.439-.324-8.138-5.831-18.489-3.101-4.13 1.088-8.353-1.374-9.442-5.5s1.374-8.353 5.5-9.442c17.981-4.741 31.285 5.355 31.842 5.786 3.373 2.614 3.989 7.467 1.375 10.84-1.521 1.966-3.804 2.995-6.112 2.995z" fill="#5a5a5a"/><path d="m203.251 271.56c-4.823 0-9.498-.92-13.894-2.733-3.945-1.627-5.823-6.144-4.196-10.089 1.627-3.944 6.143-5.824 10.089-4.196 2.518 1.038 5.21 1.565 8.001 1.565 2.844 0 5.581-.545 8.136-1.621 3.935-1.657 8.464.19 10.119 4.122 1.656 3.933-.19 8.463-4.122 10.119-4.463 1.881-9.218 2.833-14.133 2.833z" fill="#c6794e"/><path d="m203.345 306.725c-10.566 0-20.4-3.988-27.692-11.231-3.028-3.007-3.044-7.899-.037-10.927s7.899-3.045 10.927-.037c4.314 4.285 10.438 6.742 16.803 6.742 6.364 0 12.488-2.457 16.802-6.742 3.028-3.007 7.92-2.99 10.927.037 3.007 3.028 2.99 7.92-.037 10.927-7.294 7.243-17.128 11.231-27.693 11.231z" fill="#c6794e"/><path d="m467.497 372.134c0-44.259-37.039-79.867-81.811-77.518-40.051 2.101-72.176 34.985-73.408 75.073-.85 27.658 12.773 52.19 33.863 66.594 2.136 1.459 3.439 3.853 3.439 6.439v11.813c0 6.542 5.303 11.845 11.845 11.845l28.443 10.302 28.443-10.302c6.542 0 11.845-5.303 11.845-11.845v-11.81c0-2.593 1.312-4.989 3.453-6.452 20.46-13.98 33.888-37.491 33.888-64.139z" fill="#fee45a"/><path d="m385.686 294.616c-3.844.202-7.612.692-11.29 1.44 35.475 7.16 66.374 38.492 66.374 76.078 0 26.648-18.204 48.358-38.068 64.139-2.03 1.613-7.408 3.859-7.408 6.452l-.766 11.81c0 6.542-.582 11.845-7.124 11.845l16.137 10.302 14.772-10.302c6.542 0 11.845-5.303 11.845-11.845v-11.81c0-2.593 1.312-4.989 3.453-6.452 20.458-13.979 33.886-37.49 33.886-64.139 0-44.259-37.039-79.867-81.811-77.518z" fill="#fedf30"/><path d="m410.081 340.391c-7.945 0-15.12 3.339-20.212 8.681-5.092-5.342-12.267-8.681-20.212-8.681-15.405 0-27.939 12.533-27.939 27.939 0 15.405 12.533 27.938 27.939 27.938 4.486 0 8.725-1.069 12.486-2.956v73.068c0 4.267 3.459 7.726 7.726 7.726s7.726-3.459 7.726-7.726v-73.068c3.76 1.887 7.999 2.956 12.485 2.956 15.405 0 27.939-12.533 27.939-27.938 0-15.406-12.533-27.939-27.938-27.939zm-40.424 40.424c-6.885 0-12.486-5.601-12.486-12.485 0-6.885 5.601-12.486 12.486-12.486s12.486 5.601 12.486 12.486c0 6.884-5.601 12.485-12.486 12.485zm40.424 0c-6.884 0-12.485-5.601-12.485-12.485 0-6.885 5.601-12.486 12.485-12.486 6.885 0 12.486 5.601 12.486 12.486 0 6.884-5.601 12.485-12.486 12.485z" fill="#fac600"/><path d="m358.671 466.379v14.423c0 17.23 13.968 31.198 31.198 31.198 17.23 0 31.198-13.968 31.198-31.198v-14.423z" fill="#cecece"/></g><g/><g/><g/><g/><g/><g/><g/><g/><g/><g/><g/><g/><g/><g/><g/></svg>