<svg xmlns="http://www.w3.org/2000/svg"  viewBox="0 0 100 100" width="100px" height="100px" baseProfile="basic"><path fill="#d1d1d1" d="M79.964,38.981H23.991v-7.954c0-1.654,1.341-2.995,2.995-2.995h50.008c1.64,0,2.97,1.33,2.97,2.97	V38.981z"/><path d="M19.503,96.012c-1.734,0-3.367-0.678-4.598-1.903c-1.227-1.224-1.902-2.854-1.902-4.585	c0-8.309,5.219-15.784,13.008-18.665l3.117-1.4c-1.777-2.636-2.719-5.837-2.531-9.206l0.223-4.425	c-0.406-0.347-0.797-0.733-1.16-1.15c-3.809-4.351-5.266-12.446-1.27-17.109c0.492-0.573,1.062-1.08,1.688-1.513	c-0.051-0.819-0.074-1.634-0.074-2.484c0-15.039,11.18-26.381,26-26.381s26,11.343,26,26.381c0,0.846-0.023,1.657-0.074,2.476	c0.633,0.433,1.211,0.944,1.707,1.525c3.996,4.663,2.535,12.758-1.273,17.109c-0.371,0.421-0.762,0.811-1.176,1.162l0.223,4.437	c0.188,3.353-0.75,6.55-2.527,9.178l3.113,1.4c7.789,2.881,13.008,10.356,13.008,18.661c0,3.579-2.914,6.488-6.5,6.488	L19.503,96.012z" opacity=".35"/><path fill="#f2f2f2" d="M75.996,68.824l-3.113-1.399c1.777-2.627,2.715-5.822,2.527-9.174l-0.223-4.435	c0.414-0.351,0.805-0.74,1.176-1.161c3.695-4.219,5.164-11.95,1.601-16.664v-4.989c0-1.359-0.918-2.492-2.164-2.845	c-1.187-10.204-7.69-18.245-16.821-21.448V6.003c0-1.654-1.341-2.995-2.995-2.995H45.003c-1.654,0-2.995,1.341-2.995,2.995v0.385	c-9.642,2.957-16.568,11.199-17.8,21.759c-1.274,0.344-2.217,1.497-2.217,2.88v5.055c-3.473,4.723-2.001,12.378,1.669,16.569	c0.363,0.417,0.754,0.803,1.16,1.15l-0.223,4.423c-0.188,3.367,0.754,6.566,2.531,9.201l-3.117,1.399	c-7.789,2.88-13.008,10.35-13.008,18.655c0,1.73,0.676,3.359,1.902,4.583c1.23,1.224,2.863,1.902,4.598,1.902l65-0.004	c3.586,0,6.5-2.907,6.5-6.485C89.003,79.175,83.785,71.704,75.996,68.824z"/><path fill="#40396e" d="M68.512,50.132l0.414,8.266c0.316,5.761-4.174,11.631-9.917,11.631l-20.891,0.06	c-5.743,0-9.794-5.855-9.478-11.616l-0.134-8.341"/><path fill="#ffc7a3" d="M66.238,50.533c1.469,1.375,4.365,0.951,6.259-1.217c2.062-2.359,2.609-5.781,1.227-7.637	c-1.105-1.488-3.113-1.523-4.926-0.273c0.504-3.246,0.207-6.344,0.207-8.957c0-12.113-8.215-19.43-19-19.43s-19,7.316-19,19.43	c0,2.66-0.211,5.82,0.422,9.133c-0.422-1.574-2.992-1.457-4.148,0.098c-1.383,1.855-0.836,5.277,1.227,7.637	s3.836,2.766,5.219,0.906c0.004-0.008,0.008-0.016,0.016-0.023c1.266,5.801,3.287,9.687,6.639,12.824l-0.037,6.747l-13.883,6.059	c-4.26,1.51-7.398,5.018-8.511,9.249c-0.215,0.818-0.039,1.69,0.478,2.36c0.517,0.67,1.316,1.062,2.162,1.062h59.267	c1.009,0,1.957-0.483,2.551-1.298c0.594-0.816,0.762-1.866,0.453-2.826c-1.263-3.915-4.286-7.122-8.305-8.547l-14.508-6.6	l-0.531-6.205C62.591,59.258,64.289,55.996,66.238,50.533z"/><path fill="#40396e" d="M34.911,28.964c0.305-2.758,2.395-4.965,5.172-4.965c5.527,0,14.312,0,19.844,0	c2.773,0,4.855,2.207,5.172,4.965c1.109,9.613,1.996,12.035,1.996,12.035h5.832c-0.07-0.113-0.148-0.223-0.23-0.32	c-0.602-0.703-2.238-1.52-4.113-0.098c0.633-3.309,0.922-5.473,0.922-8.133c0-12.113-8.715-19.93-19.5-19.93s-19.5,7.816-19.5,19.93	c0,2.66,0.289,4.824,0.922,8.133c-1.875-1.422-3.496-0.605-4.098,0.098c-0.082,0.098-0.156,0.207-0.227,0.32h5.812	C32.915,40.999,33.821,38.757,34.911,28.964z"/><path fill="#40396e" d="M50.196,63.718c4.832,0,9.285-2.582,9.285-2.582s-2.223,6.582-9.285,6.582 c-7.004,0-9.73-6.652-9.73-6.652S45.364,63.718,50.196,63.718z" opacity=".35"/><path fill="#40396e" d="M32.419,41.651c1.154-0.793,2.523-2.163,2.631-6.705c0,0,20.007,3.628,22.905-17.673c0,0,0-3-8-3.5	c-10.031-0.629-19.473,9.5-19.473,17.5S32.419,41.651,32.419,41.651z"/><path fill="#40396e" d="M55.891,16.289c0,0-4.105,16.869,11.984,19.802l1.988-2.513l-1.973-7l-4.5-9.5l-5-1.5L55.891,16.289z"/><path fill="#739f4d" d="M72.299,75.972L59.65,70.55c-0.336,2.443-5.199,5.872-10.02,5.848	c-4.742-0.019-9.445-3.448-9.777-5.848l-13.648,5.422c-5.367,1.889-7.953,6.927-7.953,12.581h64	C82.252,82.899,77.662,77.861,72.299,75.972z"/><polyline fill="none" stroke="#407845" stroke-miterlimit="10" stroke-width="3" points="38.54,70.207 49.975,76.718 50.017,87.151"/><polyline fill="none" stroke="#407845" stroke-miterlimit="10" stroke-width="3" points="61.244,70.249 50.017,76.676 50.017,87.11"/><path fill="none" stroke="#40396e" stroke-linecap="round" stroke-linejoin="round" stroke-miterlimit="10" stroke-width="3" d="M38.448,69.533l-12.04,6.312c-4.575,1.618-7.859,5.549-8.723,10.203c-0.113,0.606,0.051,1.231,0.445,1.705	c0.394,0.474,0.979,0.747,1.596,0.747h59.758c0.807,0,1.568-0.372,2.065-1.007c0.497-0.636,0.674-1.465,0.478-2.248	c-1.075-4.299-4.239-7.876-8.548-9.4l-11.966-6.337"/><path fill="none" stroke="#40396e" stroke-linecap="round" stroke-linejoin="round" stroke-miterlimit="10" stroke-width="3" d="M61.882,69.317c0,0,4.386-1.153,6.473-4.31c2.759-4.174,1.179-13.985,1.179-13.985"/><path fill="none" stroke="#40396e" stroke-linecap="round" stroke-linejoin="round" stroke-miterlimit="10" stroke-width="3" d="M38.277,69.317c0,0-5.086-0.973-7.173-4.13c-2.759-4.174-1.163-14.165-1.163-14.165"/><polygon fill="#f9b84f" points="35,87.003 30,87.003 30,75.706 35,72.983"/><polygon fill="#f9b84f" points="65,87.007 70,87.023 70,75.708 65.007,73.047"/><rect width="40" height="5" x="30" y="82" fill="#ef8630"/><rect width="5" height="3" x="65" y="79" fill="#40396e"/><rect width="5" height="3" x="30" y="79" fill="#40396e"/><path fill="#ef8630" stroke="#40396e" stroke-linecap="round" stroke-miterlimit="10" stroke-width="3" d="M67.789,37.51h3.682	c1.104,0,2.015-0.883,2.015-1.985l0.009-3.061c0.003-1.08-0.868-1.958-1.948-1.964l-0.034,0C71.512,18.683,61.825,10,49.979,10	s-21.476,8.685-21.476,20.502l-0.047,0c-1.08-0.001-1.956,0.873-1.959,1.952l-0.009,3.061c0,1.102,0.895,1.995,2,1.995h4.777"/><path fill="#dd4f2c" d="M52.042,33l-3.033-0.001c-1.081,0-2.009-0.875-2.009-1.957V10.916c0-1.081,0.877-1.958,1.958-1.958	h3.084c1.081,0,1.958,0.877,1.958,1.958v20.127C54,32.123,53.123,33,52.042,33z"/><path fill="none" stroke="#40396e" stroke-miterlimit="10" stroke-width="3" d="M45.471,10.066c0-1.41,1.143-2.554,2.554-2.554	h5.248c1.41,0,2.554,1.143,2.554,2.554"/><path fill="none" stroke="#40396e" stroke-linecap="round" stroke-linejoin="round" stroke-miterlimit="10" stroke-width="3" d="M30.904,37.979c0.128,0.817,0.285,1.692,0.471,2.666c-1.874-1.424-3.494-0.605-4.096,0.094c-1.503,1.759-0.836,6.269,1.226,8.625	s4.947,1.194,4.947,1.194c0.008-0.008,0.5,8.489,6.996,11.984v6.991l-14.04,6.312c-5.361,1.896-8.949,6.967-8.949,12.655h64.967	c0-5.688-3.588-10.759-8.949-12.655l-13.943-6.287l-0.096-7.016c6.497-3.495,6.989-11.992,6.996-11.984c0,0,2.905,1.166,4.962-1.194	c2.061-2.352,2.733-6.866,1.226-8.625c-0.601-0.698-2.237-1.518-4.111-0.094c0.196-1.027,0.357-1.922,0.486-2.741"/></svg>