<svg id="Capa_1" enable-background="new 0 0 512 512" viewBox="0 0 512 512" xmlns="http://www.w3.org/2000/svg"><g><path d="m276.442 278.629 7.699-34.261h43.194l-6.459 37.625c-1.57 9.146.544 18.542 5.88 26.134 2.361 3.359.158 8.009-3.936 8.311l-12.948.954c-12.562.926-24.49-5.635-30.434-16.74v-.001c-3.61-6.742-4.673-14.559-2.996-22.022z" fill="#fd6930"/><path d="m98.175 278.629-7.699-34.261h-43.194l6.459 37.625c1.57 9.146-.544 18.542-5.88 26.134-2.361 3.359-.158 8.009 3.936 8.311l12.948.954c12.562.926 24.49-5.635 30.434-16.74v-.001c3.61-6.742 4.673-14.559 2.996-22.022z" fill="#fd6930"/><path d="m333.531 425.281c-8.409-11.554-19.135-21.314-31.496-28.594l-7.549.083-7.904-7.54c-11.59-4.452-24.178-6.891-37.336-6.891h-15.126c-3.096 0-5.605-2.51-5.605-5.605v-71.929h-82.414v71.929c0 3.096-2.51 5.605-5.605 5.605h-15.126c-14.338 0-40.431 8.136-40.431 8.136l-5.945 13.032-9.508-4.926c-27.605 17.581-46.374 47.803-48.158 82.514l6.87 4.138h305.334v-59.952z" fill="#ffe5c2"/><path d="m74.947 481.095h-53.627c-.092 1.8-.14 3.612-.14 5.435v15.548c0 5.48 4.442 9.923 9.922 9.923h38.384z" fill="#fed2a4"/><path d="m305.834 399.036c10.561 16.295 16.698 35.723 16.698 56.588v15.548c0 5.48-4.443 9.923-9.923 9.923h-15.705l5.13 30.905h28.279c5.48 0 23.124-4.443 23.124-9.923v-15.548c0-36.679-18.956-68.927-47.603-87.493z" fill="#fed2a4"/><path d="m294.308 455.868h-217.095l7.726 56.132h201.642z" fill="#01c0fa"/><path d="m84.939 512h201.642l7.727-30.908h-217.095z" fill="#08a9f1"/><path d="m485.518 417.044h-155.205v94.956h155.205c2.928 0 5.302-2.374 5.302-5.302v-84.352c0-2.929-2.374-5.302-5.302-5.302z" fill="#5a5a5a"/><path d="m471.186 356.816-140.873 65.141-13.295-28.752c-1.229-2.658-.071-5.809 2.587-7.038l136.061-62.916c2.658-1.229 5.809-.071 7.038 2.587l11.07 23.939c1.228 2.659.07 5.81-2.588 7.039z" fill="#686868"/><circle cx="187.308" cy="52.355" fill="#ef4424" r="52.355"/><path d="m334.385 236.255v-51.23c0-47.426-26.681-92.118-72.103-120.777-44.329-27.969-105.617-27.969-149.946 0-45.423 28.659-72.104 73.352-72.104 120.777v51.23z" fill="#fd6930"/><path d="m231.346 64.249c45.422 28.658 72.103 73.351 72.103 120.777v51.23h30.936v-51.23c0-47.426-26.681-92.118-72.103-120.777-26.502-16.721-59.064-23.436-90.441-20.164 21.106 2.201 41.677 8.916 59.505 20.164z" fill="#fd5426"/><circle cx="315.21" cy="219.563" fill="#ffe5c2" r="30.148"/><path d="m253.678 150.329c-19.265-4.909-38.91-10.007-59.577-32.747-3.647-4.013-9.936-4.013-13.583 0-20.667 22.74-40.312 27.837-59.577 32.747-25.012 6.373-51.469 18.373-51.468 52.428v16.92c0 45.675 21.377 88.717 57.769 116.317 17.758 13.468 38.913 20.202 60.068 20.202s42.311-6.734 60.068-20.202c36.392-27.6 57.769-70.643 57.769-116.317v-16.92c-.001-34.055-26.458-46.055-51.469-52.428z" fill="#ffe5c2"/><path d="m257.334 151.305c10.036 8.073 16.904 19.687 16.903 37.028v31.344c0 45.675-21.377 88.717-57.769 116.317-13.42 10.178-28.78 16.504-44.614 18.99 5.119.804 10.286 1.212 15.454 1.212 21.155 0 42.311-6.734 60.068-20.202 36.392-27.601 57.769-70.643 57.769-116.317v-16.92c.001-32.399-23.945-44.831-47.811-51.452z" fill="#fed2a4"/><circle cx="59.407" cy="219.563" fill="#ffe5c2" r="30.148"/><path d="m447.976 472.688h-5.986v-16.331h5.986c4.268 0 7.726-3.459 7.726-7.726s-3.459-7.726-7.726-7.726h-74.818c-4.268 0-7.726 3.459-7.726 7.726s3.459 7.726 7.726 7.726h5.986v16.331h-5.986c-4.268 0-7.726 3.459-7.726 7.726s3.459 7.726 7.726 7.726h74.818c4.268 0 7.726-3.459 7.726-7.726s-3.459-7.726-7.726-7.726zm-53.38-16.332h31.941v16.331h-31.941z" fill="#9c9c9c"/><path d="m143.144 238.188c-4.268 0-7.726-3.459-7.726-7.726v-7.744c0-4.267 3.459-7.726 7.726-7.726 4.268 0 7.726 3.459 7.726 7.726v7.744c0 4.267-3.459 7.726-7.726 7.726z" fill="#686868"/><path d="m231.473 238.188c-4.268 0-7.726-3.459-7.726-7.726v-7.744c0-4.267 3.459-7.726 7.726-7.726s7.726 3.459 7.726 7.726v7.744c0 4.267-3.459 7.726-7.726 7.726z" fill="#686868"/><path d="m127.01 207.432c-2.307 0-4.589-1.038-6.117-3.009-2.614-3.373-1.967-8.25 1.406-10.864.557-.432 13.848-10.514 31.803-5.78 4.126 1.088 6.589 5.315 5.5 9.441-1.088 4.126-5.311 6.587-9.442 5.501-10.409-2.743-18.134 2.86-18.459 3.101-1.401 1.085-3.052 1.61-4.691 1.61z" fill="#fd6930"/><path d="m247.58 207.393c-1.634 0-3.278-.516-4.675-1.579-.444-.326-8.127-5.816-18.449-3.094-4.132 1.089-8.353-1.375-9.442-5.501s1.374-8.353 5.5-9.441c17.956-4.737 31.245 5.349 31.803 5.78 3.373 2.614 3.989 7.467 1.375 10.84-1.522 1.965-3.805 2.995-6.112 2.995z" fill="#fd6930"/><path d="m187.215 268.454c-4.819 0-9.488-.918-13.876-2.729-3.945-1.627-5.823-6.144-4.195-10.089 1.627-3.945 6.143-5.825 10.089-4.196 2.51 1.036 5.196 1.561 7.983 1.561 2.839 0 5.57-.544 8.118-1.617 3.932-1.656 8.463.188 10.12 4.121 1.656 3.933-.189 8.463-4.122 10.12-4.457 1.877-9.207 2.829-14.117 2.829z" fill="#fac094"/><path d="m187.309 303.563c-10.552 0-20.374-3.983-27.657-11.217-3.027-3.007-3.044-7.899-.037-10.927 3.006-3.029 7.898-3.044 10.927-.037 4.305 4.276 10.416 6.728 16.768 6.728s12.463-2.452 16.768-6.728c3.027-3.007 7.92-2.99 10.927.037 3.007 3.028 2.99 7.92-.037 10.927-7.285 7.234-17.107 11.217-27.659 11.217z" fill="#fac094"/><g fill="#99e6fc"><path d="m69.487 512h15.453v-121.525c-5.398 2.275-10.563 4.993-15.453 8.107z"/><path d="m286.581 512h15.453v-115.31c-4.908-2.89-10.072-5.389-15.453-7.455z"/></g></g><g/><g/><g/><g/><g/><g/><g/><g/><g/><g/><g/><g/><g/><g/><g/></svg>