<svg xmlns="http://www.w3.org/2000/svg"  viewBox="0 0 100 100" width="100px" height="100px" baseProfile="basic"><path d="M19.5,97.125c-3.584,0-6.5-2.916-6.5-6.5c0-8.321,5.219-15.809,13.008-18.698l1.102-0.496	l-0.087-14.389c-0.483-0.394-0.938-0.835-1.363-1.321C24.122,53.96,23.564,49.47,23,46.994C11.892,42.491,8.875,38.298,8.875,33.601	c0-4.696,2.664-13.084,20.074-17.66c0.019-0.024,0.037-0.05,0.055-0.074c1.888-2.55,4.163-4.763,6.763-6.574	c4.287-2.985,9.303-4.753,14.506-5.113c0.58-0.04,1.137-0.052,1.611-0.059h0.232c0.475,0.007,1.031,0.019,1.609,0.059	c5.205,0.36,10.221,2.128,14.507,5.112c2.601,1.813,3.129,3.902,5.018,6.453c0.018,0.024,1.782,0.172,1.801,0.196	c17.41,4.576,20.074,12.964,20.074,17.66c0,4.694-2.439,11.024-13.531,15.527c-0.563,2.479-1.695,4.83-3.232,6.59	c-0.403,0.462-0.834,0.883-1.29,1.262l0.286,14.661l0.635,0.286C85.782,74.816,91,82.304,91,90.625c0,3.584-2.916,6.5-6.5,6.5H19.5z" opacity=".35"/><path fill="#f2f2f2" d="M17.5,95.125c-3.584,0-6.5-2.916-6.5-6.5c0-8.321,5.219-15.809,13.008-18.698l1.102-0.496	l-0.087-14.389c-0.483-0.394-0.938-0.835-1.363-1.321c-1.537-1.761-2.669-4.109-3.233-6.585C9.317,42.633,6.875,36.298,6.875,31.601	c0-4.696,2.664-13.084,20.074-17.66c0.019-0.024,0.037-0.05,0.055-0.074c1.888-2.55,4.163-4.763,6.763-6.574	c4.287-2.985,9.303-4.753,14.506-5.113c0.58-0.04,1.137-0.052,1.611-0.059h0.232c0.475,0.007,1.031,0.019,1.609,0.059	c5.205,0.36,10.221,2.128,14.507,5.112c2.601,1.813,4.876,4.025,6.765,6.576c0.018,0.024,0.035,0.049,0.054,0.073	c17.41,4.576,20.074,12.964,20.074,17.66c0,4.694-2.439,11.024-13.531,15.527c-0.563,2.479-1.695,4.83-3.232,6.59	c-0.403,0.462-0.834,0.883-1.29,1.262l0.286,14.661l0.635,0.286C83.782,72.816,89,80.304,89,88.625c0,3.584-2.916,6.5-6.5,6.5H17.5z"/><path fill="#40396e" d="M50,10.119c0.394,0.005,0.786,0.014,1.174,0.041c3.733,0.258,7.413,1.556,10.485,3.697	c1.875,1.306,3.548,2.934,4.907,4.77c0.53,0.716,1.028,1.484,1.462,2.261c0.144,0.057,0.297,0.121,0.442,0.179	c9.988,2.179,16.654,6.079,16.654,10.534c0,6.835-15.67,12.375-35,12.375c-0.042,0-0.083-0.001-0.125-0.001	c-0.042,0-0.083,0.001-0.125,0.001c-19.33,0-35-5.54-35-12.375c0-4.455,6.262-8.177,16.25-10.356c0.145-0.058,2-4.5,6.875-7.75	c3.116-2.077,7.092-3.076,10.826-3.334C49.214,10.133,49.606,10.125,50,10.119 M50,7.119l-0.042,0.001	c-0.396,0.006-0.859,0.014-1.34,0.048c-3.327,0.23-8.159,1.082-12.282,3.831c-2.867,1.911-5.268,4.469-7.147,7.611	c-11.18,2.67-17.314,7.259-17.314,12.992c0,10.094,19.116,15.375,38,15.375l0.105-0.001l0.145,0.001c18.884,0,38-5.281,38-15.375	c0-5.774-6.591-10.584-18.125-13.265c-0.321-0.509-0.663-1.009-1.023-1.495c-1.565-2.115-3.451-3.947-5.603-5.447	c-3.543-2.468-7.69-3.93-11.993-4.228c-0.481-0.033-0.944-0.042-1.34-0.048L50,7.119L50,7.119z"/><path fill="#ef8630" d="M67.952,20.996c0.391,0.707,0.753,1.432,1.062,2.186c-5.535-1.297-12.17-2.054-19.308-2.054	c-7.254,0-13.993,0.78-19.581,2.117c0.284-0.701,0.618-1.376,0.973-2.038C21.418,23.408,15,27.247,15,31.619	c0,6.835,15.67,12.375,35,12.375s35-5.54,35-12.375C85,27.105,78.162,23.157,67.952,20.996z"/><path fill="#40396e" d="M60.429,70.134H39.571c-5.741,0-9.764,7.592-9.446,1.86L30,51.359h40l0.414,21.26	C70.732,78.35,66.17,70.134,60.429,70.134z"/><path fill="#ffc7a3" d="M73.545,75.953L59,70.134v-7c3.73-3.02,5.864-7.036,7.619-12.386c1.469,1.375,3.98,0.863,5.875-1.306	c2.061-2.359,2.609-5.779,1.225-7.638c-1.106-1.485-3.112-1.521-4.924-0.273C69.298,38.284,69,35.188,69,32.573	c0-12.112-8.216-19.43-19-19.43s-19,7.318-19,19.43c0,2.662-0.21,5.823,0.421,9.134c-0.421-1.573-2.99-1.456-4.146,0.096	c-1.385,1.859-0.836,5.278,1.225,7.638c2.061,2.359,3.834,2.765,5.218,0.906c0.006-0.007,0.01-0.016,0.015-0.024	c1.825,5.172,3.916,9.674,7.266,12.81v7l-14.545,5.819c-5.367,1.901-8.955,6.977-8.955,12.672l0,0h65l0,0	C82.5,82.93,78.912,77.854,73.545,75.953z"/><path fill="#40396e" d="M32.82,41.213c0,0,1.055-0.719,1.555-4.094c0,0,27.75,3,23.625-20.485c0,0,0-3-8-3.5	c-10.03-0.627-19.473,9.5-19.473,17.5S32.82,41.213,32.82,41.213z"/><path fill="#40396e" d="M67,31.033C64.961,35.701,67.371,41.6,67.371,41.6l1.77-2.427l0.401-8.14	C69.541,31.033,67.422,30.067,67,31.033z"/><path fill="#40396e" d="M56.152,18.457c0,0-3.59,16.354,12.5,19.287l1.473-2l-1.973-7l-2.777-9.625l-8.25-4.5L56.152,18.457z"/><path fill="#40396e" d="M39.865,60.51c0,0,5.758,3.624,10.135,3.624s9.787-3.388,9.787-3.388l-1.31,0.759	c0,0-2.082,6.629-8.477,6.629c-6.343,0-8.547-6.691-8.547-6.691L39.865,60.51z" opacity=".35"/><path fill="#ff7575" d="M73.545,75.953l-13.648-5.46c-0.665,4.878-4.836,8.641-9.897,8.641s-9.232-3.763-9.897-8.641	l-13.648,5.46C21.088,77.854,17.5,82.93,17.5,88.625l0,0h65l0,0C82.5,82.93,78.912,77.854,73.545,75.953z"/><path fill="#2785bd" d="M53.145,88.119H83.5c-0.206-5.487-3.728-10.322-8.935-12.166l-4.981-1.993l-18.449,12.78	L53.145,88.119z"/><path fill="#2785bd" d="M54.125,88.119l-2.99-1.378L32.482,73.95l-5.007,2.003c-0.771,0.273-1.5,0.618-2.192,1.015	l-1.135,0.729c-3.366,2.408-5.491,6.281-5.613,10.543L52.5,88.619L54.125,88.119z"/><path fill="#40396e" d="M82.5,90.125h-65c-0.829,0-1.5-0.672-1.5-1.5c0-6.295,3.974-11.938,9.895-14.064L39,68.664v-5.172	c-4.687-2.981-6.255-8.342-6.765-11.084c-1.366,0.093-3.255-0.195-4.814-1.979c-2.343-2.685-3.373-8.103-1.235-10.602	c0.646-0.754,1.838-1.467,3.305-1.407C29.17,36.405,29,34.642,29,32.573c0-12.417,8.832-21.43,21-21.43s21,9.013,21,21.43	c0,2.067-0.17,3.83-0.491,5.844c1.458-0.054,2.672,0.652,3.321,1.409c2.139,2.501,1.109,7.919-1.234,10.603	c-1.562,1.787-3.461,2.081-4.832,1.979c-0.511,2.749-2.08,8.105-6.764,11.085v5.172l13.105,5.896C80.026,76.687,84,82.33,84,88.625	C84,89.453,83.329,90.125,82.5,90.125z M19.095,87.125h61.811c-0.562-4.427-3.58-8.241-7.861-9.758	c-0.039-0.014-0.077-0.029-0.115-0.046l-14.045-6.319C58.346,70.76,58,70.224,58,69.634v-7c0-0.552,0.303-1.06,0.789-1.32	c5.423-2.921,6.149-9.982,6.214-10.778c0.049-0.604,0.458-1.142,1.034-1.328c0.334-0.108,0.696-0.097,1.022,0.035	c0.187,0.07,1.983,0.693,3.277-0.788c1.771-2.026,2.054-5.695,1.215-6.676c-0.007-0.008-0.767-0.863-2.065,0.123	c-0.495,0.377-1.169,0.408-1.697,0.081s-0.8-0.946-0.684-1.557C67.686,37.383,68,35.229,68,32.573c0-10.679-7.57-18.43-18-18.43	s-18,7.751-18,18.43c0,2.656,0.314,4.81,0.895,7.853c0.116,0.61-0.156,1.229-0.684,1.557c-0.527,0.327-1.203,0.296-1.697-0.081	c-1.289-0.98-2.018-0.159-2.048-0.123c-0.838,0.979-0.554,4.649,1.215,6.677c1.344,1.537,3.238,0.796,3.258,0.788	c0.327-0.133,0.689-0.145,1.024-0.036c0.576,0.187,0.985,0.725,1.034,1.328c0.065,0.796,0.791,7.857,6.214,10.778	C41.697,61.574,42,62.082,42,62.634v7c0,0.59-0.346,1.126-0.884,1.368l-14.045,6.319c-0.038,0.017-0.076,0.032-0.115,0.046	C22.674,78.884,19.657,82.698,19.095,87.125z"/><path fill="#ef8630" d="M69.183,21.174c-0.444-0.187-0.863-0.353-1.28-0.517c-3.59-6.425-10.44-10.779-18.323-10.779	c-7.915,0-14.787,4.391-18.364,10.859c-0.304,0.164-0.597,0.317-0.923,0.499c-9.303,2.224-15.419,5.989-15.419,10.258	c0,1.216,0.505,2.39,1.429,3.5c2.141-2.571,6.574-4.794,12.471-6.372c5.867-1.57,13.175-2.503,21.1-2.503	c7.811,0,15.023,0.905,20.846,2.435c6.023,1.582,10.553,3.832,12.725,6.44c0.924-1.11,1.429-2.284,1.429-3.5	C84.875,27.183,78.638,23.389,69.183,21.174z"/><path fill="#40396e" d="M56,52.994c0,3.314-2.686,6-6,6s-6-2.686-6-6H56z"/><path fill="#f9b84f" d="M67.952,20.612C64.376,14.139,57.5,9.744,49.581,9.744c-8.004,0-14.914,4.403-18.456,10.992	c5.453-1.24,11.91-1.875,18.875-1.875C56.564,18.861,62.703,19.501,67.952,20.612z"/></svg>