<svg id="Capa_1" enable-background="new 0 0 512 512" viewBox="0 0 512 512" xmlns="http://www.w3.org/2000/svg"><g><path d="m204.802 413.846-78.957-25.184c-46.337 8.989-81.322 49.783-81.322 98.747v15.011c0 5.291 4.289 9.58 9.58 9.58h301.62c5.291 0 9.58-4.289 9.58-9.58v-15.011c0-48.965-34.985-89.758-81.322-98.747z" fill="#f8f6f6"/><path d="m318.678 402.508c9.933 15.594 15.69 34.107 15.69 53.965v15.012c0 5.291-4.289 9.58-9.58 9.58h-104.544l24.066 30.935h111.414c5.291 0 9.58-4.289 9.58-9.58v-15.011c-.001-35.697-18.596-67.047-46.626-84.901z" fill="#e2e2e2"/><path d="m189.371 481.064h-144.642c-.131 2.099-.205 4.213-.205 6.345v15.011c0 5.291 4.289 9.58 9.58 9.58h111.414z" fill="#e2e2e2"/><path d="m165.517 512h78.793l-17.994-30.936-21.779-10.302-21.026 10.302z" fill="#00c285"/><path d="m236.455 455.444-31.541-36.862-31.541 36.862 10.138 25.62h42.805z" fill="#0ed290"/><path d="m465.088 456.099-3.59-2.072c-1.831-1.057-2.73-3.188-2.249-5.247 1.167-4.986 1.793-10.18 1.793-15.522s-.627-10.535-1.793-15.521c-.482-2.059.417-4.19 2.249-5.247l3.59-2.072c2.283-1.318 3.066-4.238 1.747-6.521l-11.558-20.019c-1.318-2.283-4.238-3.065-6.522-1.747l-3.604 2.081c-1.831 1.057-4.126.771-5.667-.676-7.55-7.082-16.708-12.465-26.875-15.538-2.022-.611-3.415-2.456-3.415-4.568v-4.139c0-2.637-2.137-4.774-4.774-4.774h-23.115c-2.637 0-4.774 2.137-4.774 4.774v4.139c0 2.112-1.393 3.957-3.415 4.568-10.166 3.072-19.325 8.455-26.875 15.538-1.542 1.447-3.837 1.733-5.667.676l-3.604-2.081c-2.283-1.318-5.203-.536-6.521 1.747l-11.558 20.019c-1.318 2.283-.536 5.203 1.747 6.521l3.59 2.072c1.831 1.057 2.73 3.188 2.249 5.247-1.167 4.986-1.793 10.179-1.793 15.521s.627 10.535 1.793 15.522c.482 2.059-.418 4.19-2.249 5.247l-3.59 2.072c-2.283 1.318-3.066 4.238-1.747 6.521l11.558 20.019c1.318 2.283 4.238 3.065 6.521 1.747l3.604-2.081c1.831-1.057 4.126-.771 5.667.676 7.55 7.083 16.709 12.466 26.875 15.539 2.022.611 3.415 2.456 3.415 4.568v4.139c0 2.637 2.137 4.774 4.774 4.774h23.115c2.637 0 4.774-2.137 4.774-4.774v-4.139c0-2.112 1.393-3.957 3.415-4.568 10.166-3.073 19.325-8.456 26.875-15.539 1.542-1.446 3.837-1.732 5.667-.676l3.604 2.081c2.283 1.318 5.203.536 6.522-1.747l11.558-20.019c1.319-2.284.537-5.204-1.747-6.521zm-72.224 5.497c-15.651 0-28.338-12.687-28.338-28.338s12.688-28.338 28.338-28.338c15.651 0 28.338 12.687 28.338 28.338 0 15.65-12.688 28.338-28.338 28.338z" fill="#acacac"/><path d="m264.712 386.818h-119.597c-6.591 0-13.031.641-19.268 1.851l19.084 73.635c1.686 6.504 9.582 9.022 14.721 4.694l39.09-32.917c3.567-3.003 8.777-3.003 12.344 0l39.09 32.917c5.139 4.328 13.035 1.81 14.721-4.694l19.084-73.635c-6.238-1.21-12.678-1.851-19.269-1.851z" fill="#cecece"/><path d="m101.028 46.14c2.293-1.096 4.061-3.102 4.842-5.544 15.206-47.542 75.296-35.741 133.719-26.011 46.22 7.697 71.894-6.794 81.004-13.597 2.348-1.753 5.638-1.096 7.236 1.375 12.857 19.875 6.226 41.716 2.248 51.149-1.233 2.925-.789 6.318 1.251 8.736 41.378 49.053 17.647 123.66 17.647 123.66h-288.124c-26.88-99.372 25.774-132.883 40.177-139.768z" fill="#5a5a5a"/><path d="m331.329 62.248c-2.04-2.418-2.485-5.811-1.251-8.736 3.977-9.433 10.609-31.274-2.248-51.149-1.598-2.471-4.888-3.129-7.236-1.376-3.664 2.736-10.013 6.714-19.294 9.994 6.622 17.259 1.278 34.449-2.13 42.531-1.233 2.925-.788 6.318 1.251 8.736 41.378 49.053 17.647 123.66 17.647 123.66h30.908c.001 0 23.731-74.607-17.647-123.66z" fill="#444"/><g fill="#d88a55"><path d="m158.51 335.163v47.77c0 25.603 20.755 46.358 46.358 46.358h.091c25.603 0 46.358-20.755 46.358-46.358v-47.77z"/><circle cx="80.373" cy="208.873" r="30.148"/><circle cx="329.454" cy="208.873" r="30.148"/><path d="m308.121 102.551c-.812-1.469-2.676-1.976-4.105-1.096-9.53 5.872-45.884 25.379-108.77 25.379-29.983 0-63.652-8.801-86.94-28.806-1.375-1.182-3.481-.828-4.416.726-10.673 17.727-16.814 38.492-16.814 60.692v49.54c0 1.933.038 3.86.114 5.783 1.722 43.507 22.802 84.102 57.655 110.535 35.516 26.936 84.621 26.936 120.137 0 36.392-27.601 57.769-70.643 57.769-116.317v-49.54c0-20.635-5.31-40.028-14.63-56.896z"/></g><path d="m281.924 112.05c6.38 14.503 9.922 30.536 9.922 47.397v49.54c0 45.675-21.377 88.717-57.769 116.317-13.42 10.178-28.781 16.504-44.616 18.99 26.071 4.094 53.425-2.232 75.521-18.99 36.392-27.601 57.769-70.643 57.769-116.317v-49.54c0-20.522-5.252-39.815-14.477-56.618-.923-1.682-3.022-2.313-4.713-1.407-5.076 2.719-15.426 8.144-21.637 10.628z" fill="#c6794e"/><path d="m322.615 234.592-.031-15.927-17.773 26.986c-6.367 9.511-17.54 14.636-28.902 13.259l-8.136-.986c-1.57-.19-2.838-1.42-3.006-2.993-1.319-12.321-11.749-21.916-24.421-21.916h-70.825c-12.671 0-23.101 9.595-24.421 21.916-.168 1.572-1.436 2.802-3.006 2.992l-8.137.986c-11.362 1.377-22.534-3.749-28.902-13.259l-18.067-26.986v16.156c0 65.066 52.747 117.813 117.813 117.813 65.157.001 117.941-52.885 117.814-118.041z" fill="#5a5a5a"/><path d="m322.584 218.666-17.773 26.986c-3.743 5.59-15.65 11.151-21.776 13.281-9.581 49.283-43.383 86.102-93.686 92.693 5.057.663 10.214 1.009 15.452 1.009 65.156 0 117.94-52.886 117.813-118.042z" fill="#444"/><path d="m160.749 206.894c-4.268 0-7.726-3.459-7.726-7.726v-7.744c0-4.267 3.459-7.726 7.726-7.726s7.726 3.459 7.726 7.726v7.744c.001 4.267-3.458 7.726-7.726 7.726z" fill="#686868"/><path d="m249.078 206.894c-4.268 0-7.726-3.459-7.726-7.726v-7.744c0-4.267 3.459-7.726 7.726-7.726 4.268 0 7.726 3.459 7.726 7.726v7.744c.001 4.267-3.458 7.726-7.726 7.726z" fill="#686868"/><path d="m144.642 176.099c-2.307 0-4.59-1.029-6.113-2.994-2.614-3.373-1.998-8.226 1.375-10.84.557-.432 13.85-10.516 31.803-5.78 4.126 1.088 6.589 5.315 5.5 9.441s-5.313 6.588-9.442 5.501c-10.494-2.769-18.32 2.994-18.396 3.053-1.408 1.09-3.074 1.619-4.727 1.619z" fill="#5a5a5a"/><path d="m265.185 176.099c-1.633 0-3.277-.515-4.673-1.578-.429-.315-8.116-5.82-18.45-3.095-4.132 1.088-8.353-1.375-9.442-5.501s1.374-8.353 5.5-9.441c17.955-4.735 31.244 5.349 31.802 5.78 3.373 2.614 3.989 7.467 1.375 10.84-1.523 1.965-3.805 2.995-6.112 2.995z" fill="#5a5a5a"/><path d="m204.821 217.226c-4.819 0-9.488-.919-13.877-2.729-3.945-1.627-5.823-6.144-4.195-10.089 1.627-3.946 6.145-5.824 10.089-4.196 2.511 1.036 5.197 1.561 7.984 1.561 2.838 0 5.569-.544 8.119-1.618 3.93-1.654 8.463.19 10.119 4.123s-.19 8.463-4.123 10.119c-4.459 1.878-9.209 2.829-14.116 2.829z" fill="#c6794e"/><path d="m204.913 292.873c-10.551 0-20.373-3.983-27.656-11.217-3.027-3.007-3.044-7.899-.037-10.927 3.007-3.029 7.899-3.045 10.927-.037 4.305 4.276 10.416 6.728 16.767 6.728s12.463-2.452 16.768-6.728c3.027-3.007 7.92-2.99 10.927.037 3.007 3.028 2.99 7.92-.037 10.927-7.285 7.233-17.107 11.217-27.659 11.217z" fill="#c6794e"/></g><g/><g/><g/><g/><g/><g/><g/><g/><g/><g/><g/><g/><g/><g/><g/></svg>