<svg id="Capa_1" enable-background="new 0 0 514.572 514.572" viewBox="0 0 514.572 514.572" xmlns="http://www.w3.org/2000/svg"><g><path d="m383.336 425.17 6.154 45.231 23.707 18.151 52.5-24.735-4.575-41.876-25.287-21.505z" fill="#6cf5c2"/><path d="m343 434.196h58.034v70.063h-58.034z" fill="#00c285" transform="matrix(.905 -.426 .426 .905 -164.508 203.31)"/><path d="m350.37 283.396c-9.822-28.663-11.687-59.364-7.035-89.304 1.626-10.465 2.475-21.229 2.475-32.217 0-103.27-74.693-160.589-166.831-160.589s-166.831 57.319-166.831 160.589c0 10.988.849 21.752 2.475 32.217 4.652 29.94 2.786 60.641-7.035 89.305-4.948 14.441-7.621 29.938-7.588 46.064.159 78.117 64.595 140.912 142.712 140.912h72.533c78.117 0 142.553-62.795 142.712-140.912.034-16.127-2.639-31.624-7.587-46.065z" fill="#fd6930"/><path d="m350.37 283.396c-9.821-28.663-11.687-59.364-7.035-89.304 1.626-10.465 2.475-21.229 2.475-32.217 0-103.27-74.693-160.589-166.831-160.589-5.212 0-10.364.193-15.454.558 84.891 6.083 151.376 62.602 151.376 160.031 0 10.988-.849 21.752-2.475 32.217-4.652 29.94-2.787 60.641 7.035 89.304 4.948 14.441 7.621 29.938 7.588 46.065-.159 78.117-64.595 140.912-142.712 140.912h30.908c78.117 0 142.553-62.795 142.712-140.912.034-16.127-2.639-31.624-7.587-46.065z" fill="#fd5426"/><path d="m294.525 398.477c-12.194-7.332-26.004-12.252-40.779-14.066l-114.847 14.39c-4.344 0-34.687-14.39-34.687-14.39-51.49 6.322-91.362 50.205-91.362 103.404v15.548c0 5.48 4.442 9.923 9.922 9.923h267.862z" fill="#5a5a5a"/><path d="m295.522 482.381h-282.531c-.092 1.8-.14 3.612-.14 5.435v15.548c0 5.48 4.442 9.923 9.922 9.923h267.862z" fill="#444"/><g fill="#ffe5c2"><path d="m240.917 383.625h-15.126c-3.095 0-5.605-2.509-5.605-5.605v-71.929h-82.414v71.929c0 3.095-2.509 5.605-5.605 5.605h-15.126c-4.344 0-8.624.27-12.828.787 4.515 10.569 10.008 20.551 15.947 29.79 27.433 42.679 90.206 42.679 117.639 0 5.939-9.239 11.432-19.222 15.947-29.79-4.204-.517-8.485-.787-12.829-.787z"/><circle cx="303.52" cy="204.075" r="30.148"/><circle cx="54.439" cy="204.075" r="30.148"/><path d="m91.441 150.449c7.185-2.616 14.958-5.472 23.165-11.034 14.399-9.76 20.784-26.287 23.577-37.736.705-2.891 4.638-3.215 5.85-.497 5.659 12.696 16.479 25.705 27.894 31.822 45.636 24.455 90.722-4.473 114.966 24.975 6.59 8.004 9.924 18.2 9.924 28.568v17.643c0 45.675-21.377 88.717-57.769 116.317-35.516 26.936-84.62 26.936-120.137 0h-.001c-36.392-27.6-57.769-70.642-57.769-116.317v-10.444c0-19.367 12.103-36.67 30.3-43.297z"/></g><path d="m286.893 157.978c-14.422-17.518-36.219-14.378-61.12-14.107 11.865 1.007 22.182 4.354 30.212 14.107 6.59 8.005 9.924 18.201 9.924 28.568v17.642c0 45.675-21.377 88.717-57.769 116.317-13.42 10.178-28.78 16.504-44.614 18.99 26.071 4.094 53.426-2.232 75.522-18.99 36.392-27.601 57.769-70.643 57.769-116.317v-17.642c0-10.367-3.334-20.563-9.924-28.568z" fill="#fed2a4"/><path d="m334.038 423.228 32.918 30.673 26.659 6.198 32.917-53.188-32.917-30.673-26.66-6.198z" fill="#62dbfb"/><path d="m316.094 433.225h62.549v70.063h-62.549z" fill="#08a9f1" transform="matrix(.526 -.85 .85 .526 -233.607 517.211)"/><path d="m290.635 442.877 35.032 10.302 35.032-10.302v-70.41l-36.75-10.302-33.314 10.302z" fill="#fee97d"/><path d="m178.886 266.948c-4.819 0-9.488-.919-13.877-2.729-3.945-1.627-5.823-6.144-4.195-10.089 1.627-3.945 6.144-5.824 10.089-4.196 2.511 1.036 5.197 1.561 7.984 1.561 2.838 0 5.569-.544 8.118-1.617 3.934-1.655 8.464.189 10.12 4.122s-.189 8.463-4.122 10.119c-4.459 1.877-9.208 2.829-14.117 2.829z" fill="#fac094"/><path d="m178.979 302.058c-10.551 0-20.373-3.983-27.657-11.216-3.027-3.007-3.044-7.899-.037-10.927 3.006-3.029 7.898-3.044 10.927-.038 4.305 4.276 10.416 6.728 16.768 6.728 6.35 0 12.462-2.452 16.767-6.728 3.027-3.006 7.92-2.99 10.927.038s2.99 7.92-.037 10.927c-7.285 7.232-17.106 11.216-27.658 11.216z" fill="#fac094"/><path d="m127.786 215.487c-4.268 0-7.726-3.459-7.726-7.726v-7.744c0-4.267 3.459-7.726 7.726-7.726 4.268 0 7.726 3.459 7.726 7.726v7.744c.001 4.267-3.458 7.726-7.726 7.726z" fill="#686868"/><path d="m230.171 215.487c-4.268 0-7.726-3.459-7.726-7.726v-7.744c0-4.267 3.459-7.726 7.726-7.726 4.268 0 7.726 3.459 7.726 7.726v7.744c0 4.267-3.459 7.726-7.726 7.726z" fill="#686868"/><path d="m277.605 166.438h-64.855c-13.95 0-25.299 11.349-25.299 25.299v4.293h-16.945v-4.293c0-13.95-11.349-25.299-25.299-25.299h-64.854c-13.95 0-25.299 11.349-25.299 25.299v6.045c0 31.758 25.455 58.019 56.743 58.541.332.006.663.008.995.008 15.24 0 29.576-5.861 40.462-16.566 7.993-7.861 13.39-17.625 15.804-28.283h19.842c2.414 10.658 7.81 20.422 15.803 28.282 10.887 10.706 25.221 16.566 40.464 16.566.331 0 .664-.003.995-.008 31.289-.523 56.743-26.784 56.743-58.541v-6.045c0-13.948-11.349-25.298-25.3-25.298zm-122.551 32.168c0 11.426-4.487 22.13-12.635 30.143-8.145 8.01-18.938 12.307-30.364 12.125-22.909-.382-41.548-19.713-41.548-43.091v-6.045c0-5.43 4.417-9.847 9.846-9.847h64.855c5.43 0 9.846 4.417 9.846 9.847zm132.398-.823c0 23.378-18.639 42.708-41.548 43.091-11.476.179-22.221-4.116-30.366-12.125-8.147-8.012-12.634-18.717-12.634-30.142v-6.868c0-5.43 4.416-9.847 9.846-9.847h64.855c5.43 0 9.847 4.417 9.847 9.847z" fill="#5a5a5a"/><path d="m290.635 311.112v61.355h70.064v-61.355c0-5.001-4.054-9.054-9.054-9.054h-51.955c-5.001 0-9.055 4.053-9.055 9.054z" fill="#fff5c6"/><path d="m290.635 442.877h70.063v70.409h-70.063z" fill="#e8b800"/><path d="m394.104 326.173-27.149 43.868 59.577 36.871 27.149-43.868c3.185-5.147 1.595-11.902-3.552-15.087l-40.938-25.336c-5.146-3.186-11.901-1.595-15.087 3.552z" fill="#dff6fd"/><path d="m478.419 380.372-42.584 20.063 29.862 63.381 42.584-20.063c5.476-2.58 7.823-9.11 5.243-14.586l-20.519-43.552c-2.58-5.475-9.11-7.822-14.586-5.243z" fill="#cffce9"/></g><g/><g/><g/><g/><g/><g/><g/><g/><g/><g/><g/><g/><g/><g/><g/></svg>