<svg xmlns="http://www.w3.org/2000/svg"  viewBox="0 0 100 100" width="100px" height="100px" baseProfile="basic"><path d="M19.49,96.06c-1.734,0-3.367-0.68-4.598-1.906c-1.227-1.227-1.902-2.859-1.902-4.594	c0-8.324,5.219-15.812,13.008-18.699l3.117-1.402c-1.777-2.641-2.719-5.848-2.531-9.223l0.223-4.434	c-0.406-0.348-0.797-0.734-1.16-1.152c-3.809-4.359-5.266-12.469-1.27-17.141c0.492-0.574,1.062-1.082,1.688-1.516	c-0.051-0.82-0.074-1.637-0.074-2.488c0-15.066,11.18-26.43,26-26.43s26,11.363,26,26.43c0,0.848-0.023,1.66-0.074,2.48	c0.633,0.434,1.211,0.945,1.707,1.527c3.996,4.672,2.535,12.781-1.273,17.141c-0.371,0.422-0.762,0.812-1.176,1.164l0.223,4.445	c0.188,3.359-0.75,6.562-2.527,9.195l3.113,1.402c7.789,2.887,13.008,10.375,13.008,18.695c0,3.586-2.914,6.5-6.5,6.5L19.49,96.06z" opacity=".35"/><path fill="#f2f2f2" d="M17.503,93.972c-1.734,0-3.367-0.678-4.598-1.902c-1.227-1.224-1.902-2.853-1.902-4.583	c0-8.305,5.219-15.777,13.008-18.657l3.117-1.399c-1.777-2.635-2.719-5.834-2.531-9.202l0.223-4.424	c-0.406-0.347-0.797-0.733-1.16-1.15c-3.809-4.349-5.266-12.44-1.27-17.102c0.492-0.573,1.062-1.08,1.688-1.512	c-0.051-0.818-0.074-1.633-0.074-2.483c0-15.032,11.18-26.37,26-26.37s26,11.337,26,26.37c0,0.846-0.023,1.656-0.074,2.475	c0.633,0.433,1.211,0.943,1.707,1.524c3.996,4.661,2.535,12.752-1.273,17.102c-0.371,0.421-0.762,0.811-1.176,1.161l0.223,4.435	c0.188,3.352-0.75,6.548-2.527,9.174l3.113,1.399c7.789,2.88,13.008,10.351,13.008,18.653c0,3.578-2.914,6.485-6.5,6.485	L17.503,93.972z"/><path fill="#40396e" d="M59.932,68.872H39.07c-5.743,0-10.302-4.85-9.986-10.61l0.414-8.266h40.006l0.414,8.266	C70.235,64.022,65.675,68.872,59.932,68.872z"/><path fill="#ffc7a3" d="M74.552,75.827l-14.574-5.906l0.504-6.727c3.73-3.02,4.387-7.223,6.141-12.574	c1.469,1.375,3.98,0.863,5.875-1.305c2.062-2.359,2.609-5.781,1.227-7.637c-1.105-1.488-3.113-1.523-4.926-0.273	c0.504-3.246,0.207-6.344,0.207-8.957c0-12.113-8.215-19.43-19-19.43s-19,7.316-19,19.43c0,2.66-0.211,5.82,0.422,9.133	c-0.422-1.574-2.992-1.457-4.148,0.098c-1.383,1.855-0.836,5.277,1.227,7.637s3.836,2.766,5.219,0.906	c0.004-0.008,0.008-0.016,0.016-0.023c1.266,5.801,1.93,9.711,5.281,12.848l1.32,6.723l-13.883,6.059	c-5.367,1.902-8.953,6.977-8.953,12.672h66C83.505,82.804,79.915,77.73,74.552,75.827z"/><path fill="#707cc0" d="M72.552,75.788l-12.648-5.422c1.321-11.269-5.011-4.149-9.831-4.172	c-4.742-0.019-11.558-8.313-9.966,4.172l-13.648,5.422c-5.367,1.889-7.953,6.927-7.953,12.581h64	C82.505,82.715,77.915,77.677,72.552,75.788z"/><path fill="#40396e" d="M40.083,23.999c5.527,0,14.312,0,19.844,0c2.773,0,4.855,2.207,5.172,4.965	c1.109,9.613,1.996,12.035,1.996,12.035h5.832c-0.07-0.113-0.148-0.223-0.23-0.32c-0.602-0.703-2.238-1.52-4.113-0.098	c0.633-3.309,0.922-5.473,0.922-8.133c0-12.113-8.715-19.93-19.5-19.93s-19.5,7.816-19.5,19.93c0,2.66,0.289,4.824,0.922,8.133	c-1.875-1.422-3.496-0.605-4.098,0.098c-0.082,0.098-0.156,0.207-0.227,0.32h5.812c0,0,0.906-2.242,1.996-12.035	C35.216,26.206,37.306,23.999,40.083,23.999z"/><path fill="#2b59a1" d="M40.096,71.128l9.936,4.866l10.341-5.272l-0.404-10.31c0,0-5.627,4.094-9.987,4.102	S39.95,60.501,39.95,60.501L40.096,71.128z"/><path fill="#40396e" d="M31.979,41.666c0,0,1.606-2.998,1.664-6.892c0,0,21.414,3.801,24.312-17.5c0,0,0-3-8-3.5	c-10.031-0.629-19.473,9.5-19.473,17.5S31.979,41.666,31.979,41.666z"/><path fill="#40396e" d="M55.891,16.289c0,0-3.59,16.355,12.5,19.289l1.473-2l-1.973-7l-4.5-9.5l-5-1.5L55.891,16.289z"/><path fill="none" stroke="#40396e" stroke-linecap="round" stroke-linejoin="round" stroke-miterlimit="10" stroke-width="3" d="M49.944,12.615c-10.78,0-19.49,7.81-19.49,19.904c0,2.661,0.289,4.818,0.921,8.126c-1.874-1.424-3.494-0.605-4.096,0.094	c-1.503,1.759-0.836,6.269,1.226,8.625s4.947,1.194,4.947,1.194c0.008-0.008,0.5,8.489,6.996,11.984v6.991l-14.04,6.312	c-5.361,1.896-8.949,6.967-8.949,12.655h64.967c0-5.688-3.588-10.759-8.949-12.655l-14.04-6.312v-6.991	c6.497-3.495,6.989-11.992,6.996-11.984c0,0,2.905,1.166,4.962-1.194c2.061-2.352,2.733-6.866,1.226-8.625	c-0.601-0.698-2.237-1.518-4.111-0.094c0.632-3.308,0.921-5.465,0.921-8.126C69.434,20.425,60.723,12.615,49.944,12.615"/><rect width="4.019" height="12.091" x="47.978" y="74.902" fill="#2b59a1"/><path fill="#40396e" d="M49.948,39.031H31.974v1.934c0.719,1.934,5.391,9.023,10.424,9.023s4.675-3.223,7.55-3.223	s2.517,3.223,7.55,3.223s9.705-7.089,10.424-9.023v-1.934H49.948z"/></svg>