<svg id="Capa_1" enable-background="new 0 0 512 512" viewBox="0 0 512 512" xmlns="http://www.w3.org/2000/svg"><g><path d="m247.024 42.082c-2.518 0-4.987-1.229-6.47-3.493-2.338-3.57-1.34-8.359 2.229-10.697l30.392-19.908c3.57-2.339 8.358-1.341 10.697 2.229 2.338 3.57 1.34 8.359-2.229 10.697l-30.392 19.908c-1.306.855-2.775 1.264-4.227 1.264z" fill="#d77f4a"/><circle cx="207.516" cy="52.355" fill="#5a5a5a" r="52.355"/><path d="m315.8 399.269c-8.991-4.956-18.814-8.589-29.216-10.607h-158.136c-46.337 8.989-81.322 49.783-81.322 98.747v15.011c0 5.291 4.289 9.58 9.58 9.58h254.745z" fill="#d77f4a"/><path d="m315.8 481.064h-268.469c-.131 2.099-.205 4.213-.205 6.345v15.011c0 5.291 4.289 9.58 9.58 9.58h254.745z" fill="#c86d36"/><path d="m267.314 386.818h-119.597c-6.591 0-13.031.641-19.268 1.851l19.084 73.635c1.686 6.504 9.582 9.022 14.721 4.694l41.423-34.881c2.218-1.868 5.459-1.868 7.678 0l41.423 34.881c5.14 4.328 13.036 1.81 14.721-4.694l19.084-73.635c-6.238-1.21-12.678-1.851-19.269-1.851z" fill="#f8f6f6"/><path d="m354.592 226.239v-35.031c0-47.426-26.681-92.118-72.103-120.777-44.329-27.969-105.617-27.969-149.946 0-45.422 28.658-72.103 73.35-72.103 120.776v35.031h294.152z" fill="#5a5a5a"/><path d="m251.553 70.43c45.422 28.658 72.103 73.351 72.103 120.777v35.031h30.936v-35.031c0-47.426-26.681-92.118-72.103-120.777-26.502-16.721-59.064-23.436-90.441-20.164 21.106 2.202 41.678 8.916 59.505 20.164z" fill="#444"/><path d="m161.112 353.469v28.389c0 25.628 20.776 46.404 46.404 46.404 25.628 0 46.404-20.776 46.404-46.404v-29.064z" fill="#ffe5c2"/><circle cx="335.418" cy="230.896" fill="#ffe5c2" r="30.148"/><path d="m273.885 161.662c-19.983-5.092-40.373-10.386-61.89-35.361-2.352-2.73-6.607-2.73-8.958 0-21.517 24.974-41.907 30.269-61.89 35.361-25.012 6.373-51.469 18.373-51.468 52.428v16.92c0 45.675 21.377 88.717 57.769 116.317 17.758 13.468 38.913 20.202 60.068 20.202s42.311-6.734 60.068-20.202c36.392-27.6 57.769-70.643 57.769-116.317v-16.92c0-34.055-26.456-46.055-51.468-52.428z" fill="#ffe5c2"/><path d="m277.541 162.638c10.036 8.073 16.903 19.687 16.903 37.028v31.344c0 45.675-21.377 88.717-57.769 116.317-13.42 10.178-28.78 16.504-44.614 18.99 5.119.804 10.286 1.212 15.454 1.212 21.155 0 42.311-6.734 60.068-20.202 36.392-27.601 57.769-70.643 57.769-116.317v-16.92c.001-32.399-23.944-44.83-47.811-51.452z" fill="#fed2a4"/><circle cx="79.614" cy="230.896" fill="#ffe5c2" r="30.148"/><path d="m457.595 309.817h-138.865c-4.02 0-7.279 3.259-7.279 7.279v194.904h146.144c4.02 0 7.279-3.259 7.279-7.279v-187.626c0-4.02-3.259-7.278-7.279-7.278z" fill="#ebebeb"/><path d="m457.375 309.817h-23.41v163.776c0 4.141-3.357 7.499-7.498 7.499h-115.016v30.908h145.925c4.141 0 7.498-3.357 7.498-7.499v-187.186c0-4.141-3.357-7.498-7.499-7.498z" fill="#e2e2e2"/><g fill="#686868"><path d="m393.212 370.007h-41.953c-4.267 0-7.726-3.459-7.726-7.726s3.459-7.726 7.726-7.726h41.953c4.267 0 7.726 3.459 7.726 7.726s-3.459 7.726-7.726 7.726z"/><path d="m425.066 414.789h-73.806c-4.267 0-7.726-3.459-7.726-7.726s3.459-7.726 7.726-7.726h73.806c4.267 0 7.726 3.459 7.726 7.726 0 4.266-3.459 7.726-7.726 7.726z"/><path d="m425.066 446.177h-73.806c-4.267 0-7.726-3.459-7.726-7.726s3.459-7.726 7.726-7.726h73.806c4.267 0 7.726 3.459 7.726 7.726s-3.459 7.726-7.726 7.726z"/><path d="m425.066 477.566h-73.806c-4.267 0-7.726-3.459-7.726-7.726s3.459-7.726 7.726-7.726h73.806c4.267 0 7.726 3.459 7.726 7.726s-3.459 7.726-7.726 7.726z"/><path d="m163.351 249.521c-4.267 0-7.726-3.459-7.726-7.726v-7.744c0-4.267 3.459-7.726 7.726-7.726s7.726 3.459 7.726 7.726v7.744c.001 4.267-3.459 7.726-7.726 7.726z"/><path d="m251.68 249.521c-4.267 0-7.726-3.459-7.726-7.726v-7.744c0-4.267 3.459-7.726 7.726-7.726s7.726 3.459 7.726 7.726v7.744c.001 4.267-3.459 7.726-7.726 7.726z"/></g><path d="m147.245 218.726c-2.308 0-4.59-1.029-6.113-2.994-2.614-3.373-1.998-8.226 1.375-10.84.557-.432 13.848-10.516 31.803-5.779 4.126 1.089 6.589 5.315 5.5 9.442-1.088 4.126-5.316 6.589-9.442 5.5-10.488-2.769-18.32 2.994-18.396 3.053-1.408 1.089-3.074 1.618-4.727 1.618z" fill="#5a5a5a"/><path d="m267.787 218.726c-1.632 0-3.276-.515-4.673-1.578-.427-.314-8.115-5.82-18.451-3.094-4.129 1.088-8.353-1.374-9.442-5.5s1.374-8.353 5.5-9.442c17.955-4.735 31.245 5.348 31.803 5.779 3.373 2.614 3.989 7.467 1.375 10.84-1.522 1.966-3.805 2.995-6.112 2.995z" fill="#5a5a5a"/><path d="m207.423 279.787c-4.819 0-9.488-.919-13.877-2.729-3.945-1.627-5.823-6.144-4.196-10.089 1.628-3.945 6.145-5.823 10.089-4.196 2.511 1.036 5.197 1.561 7.984 1.561 2.838 0 5.569-.544 8.118-1.618 3.935-1.656 8.463.19 10.12 4.122 1.656 3.933-.189 8.463-4.122 10.12-4.458 1.878-9.207 2.829-14.116 2.829z" fill="#fac094"/><path d="m207.516 314.896c-10.552 0-20.374-3.983-27.656-11.217-3.028-3.007-3.044-7.899-.037-10.927 3.007-3.029 7.899-3.044 10.927-.037 4.305 4.276 10.416 6.728 16.767 6.728s12.462-2.452 16.767-6.728c3.028-3.007 7.92-2.99 10.927.037 3.007 3.028 2.99 7.92-.037 10.927-7.284 7.234-17.106 11.217-27.658 11.217z" fill="#fac094"/></g><g/><g/><g/><g/><g/><g/><g/><g/><g/><g/><g/><g/><g/><g/><g/></svg>