<svg id="Capa_1" enable-background="new 0 0 512.153 512.153" viewBox="0 0 512.153 512.153" xmlns="http://www.w3.org/2000/svg"><g><g><g><path d="m259.292 398.143v114.01h78.775v-26.148c0-34.647-16.475-65.443-42.019-84.988z" fill="#ebebeb"/><path d="m296.048 401.017c7.186 12.063 11.055 36.31 11.055 54.024v15.962c0 5.626-4.56 10.186-10.186 10.186h-37.626l22.746 30.964h56.03v-26.147c0-35.274-15.683-65.506-42.019-84.989z" fill="#e2e2e2"/></g><g><path d="m78.111 397.761-36.015 3.258c-25.542 19.545-42.02 50.339-42.02 84.986v15.962c0 5.626 4.561 10.186 10.186 10.186h45.843l14.864-13.292z" fill="#ebebeb"/><path d="m78.111 481.189h-77.922c-.071 1.597-.113 3.202-.113 4.816v15.962c0 5.626 4.56 10.186 10.186 10.186h45.844z" fill="#e2e2e2"/></g><path d="m61.495 472.587c0 13.939-1.911 27.275-5.389 39.565h225.931c-3.478-12.291-5.389-25.626-5.389-39.565 0-27.275 7.298-52.246 19.399-71.569-18.006-13.78-40.515-21.973-64.94-21.973h-25.45-69.08-29.542c-24.425 0-46.934 8.193-64.94 21.973 12.101 19.323 19.4 44.294 19.4 71.569z" fill="#fed402"/><path d="m61.231 481.189c-.618 10.828-2.37 21.228-5.125 30.964h225.931c-2.755-9.736-4.507-20.135-5.125-30.964z" fill="#ffc600"/><g fill="#ffe5c2"><path d="m122.754 340.248v25.038c0 58.774 46.446 80.428 46.446 80.428s46.446-21.654 46.446-80.428v-25.038z"/><circle cx="45.08" cy="230.092" r="30.39"/><circle cx="296.161" cy="230.092" r="30.39"/></g><g><path d="m53.034 156.349c-.784 5.511-1.198 11.141-1.198 16.868v49.938c0 46.041 21.549 89.429 58.233 117.251 35.801 27.152 85.301 27.152 121.102 0 36.684-27.822 58.233-71.21 58.233-117.251v-49.938c0-5.727-.414-11.357-1.198-16.868z" fill="#ffe5c2"/><path d="m256.369 156.349c.783 5.51 1.191 11.141 1.191 16.868v49.938c0 46.041-21.549 89.429-58.233 117.251-13.431 10.186-28.79 16.551-44.629 19.094 26.383 4.237 54.102-2.128 76.473-19.094 36.684-27.822 58.233-71.21 58.233-117.251v-49.938c0-5.727-.414-11.357-1.198-16.868z" fill="#fed2a4"/></g><path d="m132.249 288.16h-27.104c-2.773 0-5.021-2.248-5.021-5.021v-4.675c0-18.418 14.931-33.349 33.349-33.349h37.146v4.675c.001 21.191-17.178 38.37-38.37 38.37z" fill="#838383"/><path d="m208.991 288.16h27.104c2.773 0 5.021-2.248 5.021-5.021v-4.675c0-18.418-14.931-33.349-33.35-33.349h-37.146v4.675c0 21.191 17.179 38.37 38.371 38.37z" fill="#678d98"/><path d="m256.986 28.524-65.989-24.819c-13.135-4.94-27.618-4.94-40.754 0l-65.988 24.819c-19.861 7.47-34.043 25.208-36.957 46.226l-6.224 44.88h259.094l-6.224-44.88c-2.916-21.017-17.098-38.756-36.958-46.226z" fill="#08a9f1"/><path d="m149.708 14.028 65.989 24.819c19.861 7.47 34.043 25.208 36.957 46.226l4.792 34.557h42.721l-6.224-44.879c-2.915-21.018-17.096-38.757-36.957-46.226l-65.989-24.819c-13.135-4.94-27.618-4.94-40.754 0l-17.835 6.708c5.872.312 11.708 1.511 17.3 3.614z" fill="#0290cf"/><path d="m170.62 102.927c-85.457 0-125.32 13.924-142.067 22.819-5.859 3.112-7.154 10.936-2.612 15.771l25.735 27.39h237.727l25.853-27.387c4.561-4.831 3.274-12.673-2.595-15.788-16.761-8.895-56.627-22.805-142.041-22.805z" fill="#00ceff"/><path d="m312.662 125.732c-6.571-3.487-16.694-7.745-31.719-11.633l-10.119 10.719c-7.906 8.375-18.914 13.122-30.431 13.122h-216.609c.447 1.282 1.151 2.505 2.158 3.576l25.735 27.39h237.727l25.853-27.387c4.561-4.83 3.273-12.672-2.595-15.787z" fill="#00bdff"/><circle cx="170.62" cy="67.463" fill="#f8f6f6" r="23.317"/><path d="m206.695 245.114h-72.149c-19.01 0-34.421 15.411-34.421 34.421v3.443c0 2.862 2.32 5.182 5.182 5.182h25.71c21.872 0 39.603-17.731 39.603-39.603 0 21.872 17.731 39.603 39.603 39.603h25.71c2.862 0 5.182-2.32 5.182-5.182v-3.443c.001-19.01-15.41-34.421-34.42-34.421z" fill="#5a5a5a"/><path d="m128.624 219.104c-4.275 0-7.741-3.466-7.741-7.741v-7.364c0-4.275 3.466-7.741 7.741-7.741s7.741 3.466 7.741 7.741v7.364c0 4.275-3.465 7.741-7.741 7.741z" fill="#5a5a5a"/><path d="m212.616 219.104c-4.275 0-7.741-3.466-7.741-7.741v-7.364c0-4.275 3.466-7.741 7.741-7.741s7.741 3.466 7.741 7.741v7.364c-.001 4.275-3.466 7.741-7.741 7.741z" fill="#5a5a5a"/><path d="m170.531 249.839c-4.633 0-9.123-.883-13.345-2.625-3.952-1.63-5.834-6.156-4.204-10.108s6.154-5.835 10.108-4.204c4.725 1.949 10.303 1.93 15.009-.052 3.941-1.659 8.48.19 10.138 4.13 1.659 3.94-.19 8.479-4.13 10.138-4.288 1.805-8.855 2.721-13.576 2.721z" fill="#fac094"/></g><g><path d="m444.096 106.874h-21.672c-4.288 0-7.763 3.476-7.763 7.763v141.033h37.199v-141.033c0-4.288-3.476-7.763-7.764-7.763z" fill="#fed402"/><path d="m407.541 417.822c-20.78.335-37.585 17.332-37.585 38.191v.024h15.482v-.024c0-12.322 9.859-22.377 22.103-22.709z" fill="#e2e2e2"/><path d="m338.849 512.153h67.311l10.321-20.646-10.321-36.466h-67.311c-6.792 0-12.298 5.506-12.298 12.298v32.516c0 6.792 5.506 12.298 12.298 12.298z" fill="#08a9f1"/><path d="m326.551 468.888v30.967c0 6.792 5.506 12.298 12.298 12.298h67.311l10.321-15.482-10.321-15.485h-67.311c-6.792 0-12.298-5.506-12.298-12.298z" fill="#0290cf"/><path d="m444.427 512.153h-38.267v-262.134c0-5.591 4.533-10.124 10.124-10.124h33.953c5.591 0 10.124 4.533 10.124 10.124v246.2c-.001 8.8-7.134 15.934-15.934 15.934z" fill="#00ceff"/><path d="m449.911 239.895h-20.518v224.845c0 9.083-7.363 16.446-16.446 16.446h-6.788v30.967h37.755c9.083 0 16.446-7.363 16.446-16.446v-245.363c0-5.771-4.678-10.449-10.449-10.449z" fill="#01c0fa"/><g fill="#00ceff"><path d="m433.26 85.525c-4.275 0-7.741-3.466-7.741-7.741v-51.024c0-4.275 3.466-7.741 7.741-7.741s7.741 3.466 7.741 7.741v51.024c0 4.276-3.465 7.741-7.741 7.741z"/><path d="m404.48 88.148c-3.063 0-5.963-1.83-7.181-4.845-6.138-15.203-20.027-26.137-36.246-28.536-4.229-.625-7.151-4.561-6.525-8.79s4.563-7.152 8.79-6.525c21.629 3.199 40.151 17.78 48.337 38.054 1.601 3.964-.315 8.475-4.28 10.076-.949.384-1.93.566-2.895.566z"/><path d="m462.04 88.148c-.965 0-1.946-.181-2.896-.565-3.964-1.601-5.88-6.112-4.28-10.076 8.186-20.274 26.708-34.855 48.337-38.054 4.228-.629 8.165 2.296 8.79 6.525s-2.296 8.165-6.525 8.79c-16.219 2.399-30.107 13.333-36.246 28.536-1.216 3.014-4.117 4.844-7.18 4.844z"/></g></g></g><g/><g/><g/><g/><g/><g/><g/><g/><g/><g/><g/><g/><g/><g/><g/></svg>