<svg id="Capa_1" enable-background="new 0 0 512 512" viewBox="0 0 512 512" xmlns="http://www.w3.org/2000/svg"><g><path d="m315.746 386.927h-26.824-64.91-27.759c-55.506 0-100.503 44.997-100.503 100.503v14.998c0 5.286 4.285 9.571 9.571 9.571h190.196l40.714-10.302 29.561 10.303h40.886c5.286 0 9.571-4.285 9.571-9.571v-14.998c0-55.507-44.996-100.504-100.503-100.504z" fill="#fd6930"/><path d="m369.667 402.605c9.925 15.581 15.677 34.078 15.677 53.921v14.998c0 5.286-4.285 9.571-9.571 9.571h-279.818c-.13 2.096-.204 4.207-.204 6.336v14.998c0 5.286 4.285 9.571 9.571 9.571h301.357c5.286 0 9.571-4.285 9.571-9.571v-14.998c-.001-35.665-18.579-66.988-46.583-84.826z" fill="#fd5426"/><path d="m210.609 340.63v38.583c0 25.603 20.755 46.358 46.358 46.358h.091c25.603 0 46.358-20.755 46.358-46.358v-38.583z" fill="#ffe5c2"/><path d="m254.988 47.985c-66.871 0-121.081 54.21-121.081 121.081v50.903c0 17.027 2.891 33.698 8.362 49.385 9.608 27.55 27.171 52.063 50.997 70.134 36.494 27.678 86.95 27.678 123.444 0 23.94-18.156 41.556-42.816 51.133-70.525 5.382-15.572 8.226-32.108 8.226-48.994v-50.903c0-66.871-54.21-121.081-121.081-121.081z" fill="#ffe5c2"/><path d="m254.988 47.985c-5.235 0-10.393.333-15.453.977 59.574 7.589 105.628 58.468 105.628 120.104v50.903c0 16.886-2.844 33.422-8.226 48.994-9.577 27.709-27.194 52.369-51.133 70.525-13.91 10.549-29.849 17.065-46.269 19.573 26.66 4.071 61.878-1.303 84.462-18.431 23.94-18.156 40.287-37.471 49.864-65.18 5.382-15.573 2.207-38.594 2.207-55.48v-50.903c.001-66.872-54.209-121.082-121.08-121.082z" fill="#fed2a4"/><path d="m80.189 156.021v44.341h53.717l8.362-23.809s60.073-15.631 97.016-41.49c2.317-1.622 5.535-.533 6.336 2.179l3.925 13.303c.628 2.128 2.82 3.373 4.971 2.828 7.774-1.968 26.376-9.25 49.245-35.93 1.88-2.194 5.383-1.827 6.749.719 6.068 11.314 23.14 37.631 59.221 58.39l15.314 33.497h44.912v-54.029c0-76.784-62.246-139.029-139.029-139.029h-71.71c-76.783.001-139.029 62.246-139.029 139.03z" fill="#01d0fb"/><path d="m381.535 196.96h48.423v-40.939c0-76.784-62.246-139.03-139.03-139.03h-48.423c76.784 0 139.029 62.246 139.029 139.03v40.939z" fill="#01c0fa"/><path d="m291.279 0h-70.558c-86.713 0-157.008 70.295-157.008 157.008v53.043l34.172-14.972v-35.629c0-66.161 53.634-119.795 119.795-119.795h74.615c66.161 0 119.795 53.634 119.795 119.795v35.629l36.197 16.538v-54.609c0-86.713-70.295-157.008-157.008-157.008z" fill="#cecece"/><path d="m306.363 367.618h-49.351c-8.534 0-15.453-6.919-15.453-15.453s6.919-15.453 15.453-15.453h49.351c17.061 0 32.956-9.18 41.483-23.959l23.815-41.278c4.266-7.391 13.716-9.929 21.107-5.662 7.392 4.265 9.928 13.714 5.662 21.107l-23.815 41.278c-14.028 24.315-40.181 39.42-68.252 39.42z" fill="#05e39c"/><path d="m133.761 297.678h-15.819c-10.895 0-19.728-8.832-19.728-19.728v-81.669c0-10.895 8.832-19.728 19.728-19.728h24.326v112.618c0 4.698-3.809 8.507-8.507 8.507z" fill="#5a5a5a"/><path d="m98.214 279.153h-18.447c-8.866 0-16.054-7.188-16.054-16.054v-51.967c0-8.866 7.188-16.054 16.054-16.054h18.447z" fill="#05e39c"/><path d="m378.239 297.678h15.819c10.895 0 19.728-8.832 19.728-19.728v-81.669c0-10.895-8.832-19.728-19.728-19.728h-24.326v112.618c0 4.698 3.809 8.507 8.507 8.507z" fill="#5a5a5a"/><path d="m413.786 279.153h18.447c8.866 0 16.054-7.188 16.054-16.054v-51.967c0-8.866-7.188-16.054-16.054-16.054h-18.447z" fill="#05e39c"/><path d="m365.792 512-35.137-10.302-35.137 10.302v-41.945c0-4.632 3.755-8.386 8.386-8.386h53.501c4.632 0 8.386 3.755 8.386 8.386v41.945z" fill="#01d0fb"/><path d="m295.518 481.092h70.274v30.908h-70.274z" fill="#01c0fa"/><path d="m211.84 234.886c-4.267 0-7.726-3.459-7.726-7.726v-7.743c0-4.268 3.459-7.726 7.726-7.726s7.726 3.459 7.726 7.726v7.743c.001 4.268-3.459 7.726-7.726 7.726z" fill="#686868"/><path d="m300.16 234.886c-4.267 0-7.726-3.459-7.726-7.726v-7.743c0-4.268 3.459-7.726 7.726-7.726s7.726 3.459 7.726 7.726v7.743c0 4.268-3.459 7.726-7.726 7.726z" fill="#686868"/><path d="m195.707 204.134c-2.306 0-4.588-1.037-6.116-3.009-2.614-3.373-1.967-8.251 1.406-10.864.557-.431 13.846-10.513 31.8-5.78 4.126 1.089 6.589 5.315 5.501 9.442-1.088 4.126-5.316 6.589-9.441 5.5-10.408-2.742-18.132 2.86-18.457 3.101-1.401 1.085-3.054 1.61-4.693 1.61z" fill="#01d0fb"/><path d="m316.265 204.095c-1.633 0-3.277-.515-4.674-1.578-.437-.321-8.118-5.819-18.447-3.094-4.125 1.086-8.353-1.374-9.441-5.5-1.089-4.127 1.374-8.353 5.501-9.442 17.953-4.733 31.243 5.349 31.799 5.78 3.373 2.614 3.988 7.467 1.375 10.84-1.523 1.964-3.806 2.994-6.113 2.994z" fill="#01d0fb"/><g fill="#fed2a4"><path d="m256 310.555c-10.55 0-20.371-3.983-27.654-11.214-3.028-3.007-3.045-7.899-.038-10.928 3.007-3.028 7.899-3.044 10.927-.038 4.305 4.276 10.416 6.727 16.766 6.727s12.46-2.452 16.765-6.727c3.028-3.005 7.92-2.988 10.927.038 3.007 3.028 2.99 7.921-.038 10.928-7.284 7.231-17.105 11.214-27.655 11.214z"/><path d="m255.907 275.45c-4.818 0-9.487-.919-13.876-2.729-3.945-1.627-5.823-6.144-4.196-10.089 1.628-3.945 6.145-5.824 10.089-4.195 2.511 1.035 5.196 1.56 7.982 1.56 2.838 0 5.569-.544 8.118-1.617 3.934-1.658 8.463.191 10.119 4.123 1.655 3.934-.191 8.464-4.124 10.119-4.456 1.876-9.204 2.828-14.112 2.828z"/></g></g><g/><g/><g/><g/><g/><g/><g/><g/><g/><g/><g/><g/><g/><g/><g/></svg>