<svg xmlns="http://www.w3.org/2000/svg"  viewBox="0 0 100 100" width="100px" height="100px" baseProfile="basic"><path d="M77.996,70.859l-3.113-1.4c1.777-2.628,2.715-5.825,2.527-9.178l-0.223-4.437	c0.238-0.201,0.466-0.419,0.689-0.644c6.231-3.213,10.041-7.502,10.041-12.215c0-4.715-2.812-9.005-9.046-12.218	C77.575,17.144,65.887,7.19,52.003,7.19c-13.227,0-23.547,9.038-25.614,21.672c-8.748,3.303-14.364,8.399-14.364,14.121	c0,5.8,5.77,10.957,14.724,14.256l-0.152,3.014c-0.188,3.369,0.754,6.57,2.531,9.206l-3.117,1.4	c-7.789,2.881-13.008,10.356-13.008,18.665c0,1.731,0.676,3.361,1.902,4.585c1.23,1.224,2.863,1.903,4.598,1.903l65-0.004	c3.586,0,6.5-2.909,6.5-6.488C91.003,81.215,85.785,73.74,77.996,70.859z" opacity=".35"/><path fill="#f2f2f2" d="M17.503,93.964c-1.734,0-3.367-0.678-4.598-1.902c-1.227-1.224-1.902-2.853-1.902-4.583	c0-8.304,5.219-15.775,13.008-18.655l3.117-1.399c-1.777-2.634-2.719-5.834-2.531-9.201l0.223-4.423	c-0.406-0.347-0.797-0.733-1.16-1.15c-3.809-4.349-5.266-12.439-1.27-17.1c0.492-0.573,1.062-1.079,1.688-1.512	c-0.051-0.818-0.074-1.633-0.074-2.482c0-15.031,11.18-26.367,26-26.367s26,11.336,26,26.367c0,0.846-0.023,1.656-0.074,2.475	c0.633,0.433,1.211,0.943,1.707,1.524c3.996,4.661,2.535,12.751-1.273,17.1c-0.371,0.421-0.762,0.811-1.176,1.161l0.223,4.435	c0.188,3.351-0.75,6.547-2.527,9.174l3.113,1.399c7.789,2.88,13.008,10.35,13.008,18.651c0,3.577-2.914,6.485-6.5,6.485	L17.503,93.964z"/><ellipse cx="49.971" cy="39.984" fill="#f2f2f2" rx="37.946" ry="18.031"/><ellipse cx="50" cy="40" fill="#dd4f2c" stroke="#40396e" stroke-miterlimit="10" stroke-width="3" rx="32" ry="13"/><path fill="#40396e" d="M69.504,49.996l0.414,8.266c0.316,5.761-4.174,11.631-9.917,11.631l-20.891,0.06	c-5.743,0-10.343-5.931-10.026-11.691l0.414-8.266"/><path fill="#ffc7a3" d="M66.238,50.533c1.469,1.375,4.365,0.951,6.259-1.217c2.062-2.359,2.609-5.781,1.227-7.637	c-1.105-1.488-3.113-1.523-4.926-0.273c0.504-3.246,0.207-6.344,0.207-8.957c0-12.113-8.215-19.43-19-19.43s-19,7.316-19,19.43	c0,2.66-0.211,5.82,0.422,9.133c-0.422-1.574-2.992-1.457-4.148,0.098c-1.383,1.855-0.836,5.277,1.227,7.637	s3.836,2.766,5.219,0.906c0.004-0.008,0.008-0.016,0.016-0.023c1.266,5.801,3.287,9.687,6.639,12.824l-0.037,6.747l-13.883,6.059	c-4.26,1.51-7.398,5.018-8.511,9.249c-0.215,0.818-0.039,1.69,0.478,2.36c0.517,0.67,1.316,1.062,2.162,1.062h59.267	c1.009,0,1.957-0.483,2.551-1.298c0.594-0.816,0.762-1.866,0.453-2.826c-1.263-3.915-4.286-7.122-8.305-8.547l-14.959-6.16	l-0.08-6.645C62.591,59.258,64.289,55.996,66.238,50.533z"/><path fill="#dd4f2c" d="M72.299,75.972L59.65,70.55c0.186-4.968-0.179-9.897-1.041-9.183	c-2.348,1.945-4.628,3.689-8.653,3.689c-3.891-0.067-6.976-2.348-9.794-4.427c-1.071-0.791-1.104,4.581-0.31,9.921l-13.648,5.422	c-5.367,1.889-7.953,6.927-7.953,12.581h64C82.252,82.899,77.662,77.861,72.299,75.972z"/><path fill="#40396e" d="M34.911,28.964c0.305-2.758,2.395-4.965,5.172-4.965c5.527,0,14.312,0,19.844,0	c2.773,0,4.855,2.207,5.172,4.965c1.109,9.613,1.996,12.035,1.996,12.035h5.832c-0.07-0.113-0.148-0.223-0.23-0.32	c-0.602-0.703-2.238-1.52-4.113-0.098c0.633-3.309,0.922-5.473,0.922-8.133c0-12.113-8.715-19.93-19.5-19.93s-19.5,7.816-19.5,19.93	c0,2.66,0.289,4.824,0.922,8.133c-1.875-1.422-3.496-0.605-4.098,0.098c-0.082,0.098-0.156,0.207-0.227,0.32h5.812	C32.915,40.999,33.821,38.757,34.911,28.964z"/><line x1="50" x2="50" y1="65.124" y2="82" fill="#40396e" stroke="#b73b3b" stroke-miterlimit="10" stroke-width="3"/><path fill="#40396e" d="M32.419,41.651c1.154-0.793,2.523-2.163,2.631-6.705c0,0,20.007,3.628,22.905-17.673c0,0,0-3-8-3.5	c-10.031-0.629-19.473,9.5-19.473,17.5S32.419,41.651,32.419,41.651z"/><path fill="#40396e" d="M55.891,16.289c0,0-4.105,16.869,11.984,19.802l1.988-2.513l-1.973-7l-4.5-9.5l-5-1.5L55.891,16.289z"/><path fill="none" stroke="#40396e" stroke-linecap="round" stroke-linejoin="round" stroke-miterlimit="10" stroke-width="3" d="M38.448,69.533l-12.04,6.312c-4.575,1.618-7.859,5.549-8.723,10.203l-0.181,0.972c-0.068,0.366,0.03,0.743,0.268,1.029	c0.238,0.286,0.59,0.451,0.962,0.451h63.042c0.256,0,0.497-0.118,0.655-0.319s0.213-0.464,0.151-0.713l-0.556-2.223	c-1.075-4.299-4.239-7.876-8.548-9.4l-11.966-6.337"/><path fill="none" stroke="#40396e" stroke-linecap="round" stroke-linejoin="round" stroke-miterlimit="10" stroke-width="3" d="M61.882,69.317c0,0,4.548-1.171,6.635-4.328c2.759-4.174,1.017-13.967,1.017-13.967"/><path fill="none" stroke="#40396e" stroke-linecap="round" stroke-linejoin="round" stroke-miterlimit="10" stroke-width="3" d="M38.277,69.317c0,0-5.232-1.171-7.319-4.328c-2.759-4.174-1.017-13.967-1.017-13.967"/><rect width="40" height="5" x="30" y="82" fill="#f9b84f"/><rect width="8" height="5" x="46" y="73" fill="#40396e"/><path fill="#ef8630" stroke="#40396e" stroke-miterlimit="10" stroke-width="3" d="M73.485,35.525l0.009-3.061	c0.003-1.08-0.868-1.958-1.948-1.964l-0.034,0C71.512,18.683,61.825,10,49.979,10s-21.476,8.685-21.476,20.502l-0.047,0	c-1.08-0.001-1.956,0.873-1.959,1.952l-0.009,3.061"/><path fill="#dd4f2c" d="M52.042,33l-2.987-0.097H44l3-21.988c0-1.081,0.877-1.958,1.958-1.958h3.084	c1.081,0,1.958,0.877,1.958,1.958L57,33H52.042z"/><path fill="none" stroke="#40396e" stroke-miterlimit="10" stroke-width="3" d="M45.471,10.066c0-1.41,1.143-2.554,2.554-2.554	h5.248c1.41,0,2.554,1.143,2.554,2.554"/><path fill="none" stroke="#40396e" stroke-linecap="round" stroke-linejoin="round" stroke-miterlimit="10" stroke-width="3" d="M30.904,37.979c0.128,0.817,0.285,1.692,0.471,2.666c-1.874-1.424-3.494-0.605-4.096,0.094c-1.503,1.759-0.836,6.269,1.226,8.625	s4.947,1.194,4.947,1.194c0.008-0.008,0.5,8.489,6.996,11.984v6.991l-14.04,6.312c-5.361,1.896-8.949,6.967-8.949,12.655h64.967	c0-5.688-3.588-10.759-8.949-12.655l-14.04-6.312v-6.991c6.497-3.495,6.989-11.992,6.996-11.984c0,0,2.905,1.166,4.962-1.194	c2.061-2.352,2.733-6.866,1.226-8.625c-0.601-0.698-2.237-1.518-4.111-0.094c0.196-1.027,0.357-1.922,0.486-2.741"/><path fill="none" stroke="#dd4f2c" stroke-linecap="round" stroke-miterlimit="10" stroke-width="5" d="M25.607,36.089	c3.532-1.927,11.244-6.02,25.366-6.02c13.889,0,23.519,6.101,23.519,6.101"/><path fill="#dd4f2c" d="M72.726,38.819c-1.955-0.592-3.058-0.699-5.974-1.161c-11.995-1.785-21.794-1.607-32.79,0.249	c-2.713,0.428-5.35,0.068-8.196,1.955l-1.284-2.809l25.366-6.582l12.041,1.044C72.813,36.264,77.461,38.54,72.726,38.819z"/><path fill="#ffeb3b" d="M50.502,27.993c-1.937,0-3.505-3.049-3.505-4.983c0,0,1.568-2.014,3.505-2.014	c1.937,0,3.505,2.014,3.505,2.014C54.007,24.943,52.432,27.993,50.502,27.993z"/></svg>